<?xml version="1.0" encoding="UTF-8"?><!DOCTYPE svg PUBLIC "-//W3C//DTD SVG 1.1//EN" "http://www.w3.org/Graphics/SVG/1.1/DTD/svg11.dtd"><svg xmlns="http://www.w3.org/2000/svg" xmlns:xlink="http://www.w3.org/1999/xlink"><defs/><symbol id="android" viewBox="0 0 264 264">
    <path d="M8.002 203.616c-.175-15.281 13.233-68.937 60-96-.071-.111.065-.882 0-1l-21-38c-1.6-2.9.1-6.4 3-8s6.4.1 8 3l21 38c-.1-.249.133.24 0 0 32.517-14.394 72.688-13.282 105 1 .116-.352-.186-.664 0-1l21-38c1.6-2.9 5.1-4.6 8-3s4.6 5.1 3 8l-21 38c-.121.219-.857.8-1 1 46.9 27.154 61.906 80.772 61 96zm170-45c-.133 5.499 4.501 10.133 10 10 5.727 0 11.027-4.3 11-10-.251-5.889-5.112-10.749-11-11-5.7 0-10 5.275-10 11m-114 0c0 5.7 5.274 10 11 10 5.503.143 10.143-4.497 10-10 0-5.7-4.273-11-10-11-5.888.251-10.75 5.111-11 11"/>
</symbol><symbol id="apple" viewBox="0 0 264 264">
    <path d="M35 145.003c0-47.726 30.01-72 58-72 18.2 0 31.54 11 41 11 8.121 0 22.382-12 42-12 33.769 0 48 24 48 24s-26 13.8-26 46c0 36.325 32 49 32 49s-22.44 64-53 64c-14.037 0-25.21-10-40-10-15.071 0-30.26 10-40 10-27.907 0-62-61.49-62-110m96-82s-3.037-16.518 11-35c15.785-20.784 37-20 37-20s3.681 19.176-12 38c-16.622 19.953-36 17-36 17"/>
</symbol><symbol id="appstore" viewBox="0 0 264 264">
    <path d="m71 213.059-12 20c-4.354 7.542-13.458 10.354-21 6s-10.354-13.458-6-21l9-17c1.506-2.164 5.565-5.7 13-5 0 0 17.734 1.907 19 11a11.73 11.73 0 0 1-2 6m169-53h-37a5.2 5.2 0 0 1-4-2l-42-72c-3.914-5.985-10 9-10 9-7.421 17.057 1.047 36.138 4 42l55 96c4.353 7.542 13.458 10.354 21 6 7.509-4.449 10.211-14.355 6-22l-14-23c-.268-.581-.836-2.993 2-3h19c8.709 0 16-6.291 16-15-.089-8.679-7.321-15.912-16-16m-72 21s1.683 10-6 10H25c-8.709 0-16-6.291-16-15 .09-8.679 7.321-15.911 16-16h35c5.708-.33 7-4 7-4l46-80a3.04 3.04 0 0 0 0-3l-15-26c-4.211-7.646-1.51-17.551 6-22 7.542-4.354 16.646-1.542 21 6l8 12 7-12c4.354-7.542 13.458-10.355 21-6 7.51 4.448 10.211 14.354 6 22l-64 111c-.281.677-1.089 1.813 1 2h39s21.978.282 25 21"/>
</symbol><symbol id="google-play" viewBox="0 0 264 264">
    <path d="m37 255 101-113 36 39-122 72c-4.536 3.102-9.86 3.601-15 2m-10-6a20 20 0 0 1-4-12V28a19.47 19.47 0 0 1 3-11l104 116zm158-74c-11-12-27.744-30.559-39-43 11.854-12.789 25.5-28 38-42l46 26c12.755 7.114 12.542 25.589 0 33zm-47-52L36 10c4.175-1.303 8.846-1.453 13 0l125 73z"/>
</symbol><symbol id="microsoft" viewBox="0 0 264 264">
    <path d="M139 253V139h117v114zM9 253V139h117v114zm130-127V12h117v114zM9 126V12h117v114z"/>
</symbol></svg>