<?xml version="1.0" encoding="UTF-8"?><!DOCTYPE svg PUBLIC "-//W3C//DTD SVG 1.1//EN" "http://www.w3.org/Graphics/SVG/1.1/DTD/svg11.dtd"><svg xmlns="http://www.w3.org/2000/svg" xmlns:xlink="http://www.w3.org/1999/xlink"><defs/><symbol id="bank" viewBox="0 0 264 264">
    <path d="M12 248.935c-9.683.001-14.608-12.184-7.644-18.912 32.208-31.108 32.422-31.3 32.643-31.481V97.935h-25c-11.32 0-15.043-15.782-4.916-20.84l120-59.936a11.08 11.08 0 0 1 9.83 0l120 59.935c10.127 5.058 6.406 20.839-4.913 20.841h-25v100.606c.266.219 31.766 31.6 31.766 31.6 4.841 4.826 4.03 13.135-1.651 16.935a11 11 0 0 1-6.116 1.856zm193-52.909v-98.09h-34v98.09zm-56 0v-98.09h-34v98.09zm-56 0v-98.09H59v98.09z"/>
</symbol><symbol id="barcode" viewBox="0 0 264 264">
    <path d="M180 263c-5.991 0-11-5.009-11-11s5.009-11 11-11h61v-61c0-5.991 5.009-11 11-11s11 5.009 11 11v72c0 5.991-5.009 11-11 11zm-168 0c-5.991 0-11-5.009-11-11v-72c0-5.991 5.009-11 11-11s11 5.009 11 11v61h61c5.991 0 11 5.009 11 11s-5.009 11-11 11zm161-75V76c0-5.991 5.009-11 11-11s11 5.009 11 11v112c0 5.991-5.009 11-11 11s-11-5.009-11-11m-36 0V76c0-5.991 5.009-11 11-11s11 5.009 11 11v112c0 5.991-5.009 11-11 11s-11-5.009-11-11m-28 0V76c0-5.991 5.009-11 11-11s11 5.009 11 11v112c0 5.991-5.009 11-11 11s-11-5.009-11-11m-39 0V76c0-5.991 5.009-11 11-11s11 5.009 11 11v112c0 5.991-5.009 11-11 11s-11-5.009-11-11M241 84V23h-61c-5.991 0-11-5.009-11-11s5.009-11 11-11h72c5.991 0 11 5.009 11 11v72c0 5.991-5.009 11-11 11s-11-5.009-11-11M1 84V12C1 6.009 6.009 1 12 1h72c5.991 0 11 5.009 11 11s-5.009 11-11 11H23v61c0 5.991-5.009 11-11 11S1 89.991 1 84"/>
</symbol><symbol id="coin" viewBox="0 0 264 264">
    <path d="M2.507 190.558C1.52 188.872.999 185 .999 185v-85c0-43.738 57.542-78 131-78s131 34.262 131 78v85s-.52 3.873-1.508 5.558c-1.206 2.059-30.67 52.441-129.493 52.441S3.713 192.617 2.507 190.558m20.492-9c42.303 54.374 175.679 54.306 218-.018v-37.71c-54.889 48.892-163.11 48.892-218 0z"/>
</symbol><symbol id="coins" viewBox="0 0 264 264">
    <path d="M6.483 214.518C5.511 212.841 4.999 209 4.999 209s.1-132.468.129-132.682C8.086 34.263 61.635 3 131.999 3c69.66 0 124.672 31.861 127.854 73.209.047.286.145 132.791.145 132.791s-.547 3.97-1.582 5.685C257.249 216.616 228.741 261 131.998 261c-96.868.001-124.39-44.542-125.515-46.482m20.516-9.065c6.245 7.6 33.449 33.547 105 33.547 71.359 0 99.34-25.815 106-33.668V181.81c-2.478 1.641-28.352 29.1-106 29.19s-102.843-27.512-105-28.951zm105-16.453c36.424 0 80.949-6.137 106-35.668V124.29c-21.194 19.3-53.485 33.656-106.235 33.71s-83.681-14.321-104.765-33.494v28.947C51.351 183.079 96.082 189 131.999 189"/>
</symbol><symbol id="credit-card-check" viewBox="0 0 264 264">
    <path d="M32.5 235c-17.094 0-31-15.252-31-34V63c0-18.748 13.907-34 31-34h200c17.094 0 31 15.252 31 34v138c0 18.748-13.906 34-31 34zm-9-34c0 6.5 4.121 12 9 12h200c4.879 0 9-5.5 9-12v-80h-218zm218-131v-7c0-6.505-4.121-12-9-12h-200c-4.879 0-9 5.5-9 12v7zm-74.949 126.6-22-23c-4.141-4.33-3.983-11.411.346-15.552 4.33-4.141 11.411-3.983 15.552.346l13.925 14.557 30.059-32.431c4.073-4.394 11.151-4.663 15.545-.59s4.663 11.151.59 15.545l-38 41c-4.264 4.601-11.683 4.659-16.017.125"/>
</symbol><symbol id="credit-card" viewBox="0 0 264 264">
    <path d="M32 235c-17.094 0-31-15.252-31-34V63c0-18.748 13.906-34 31-34h200c17.094 0 31 15.252 31 34v138c0 18.748-13.907 34-31 34zm-9-34c0 6.5 4.122 12 9 12h200c4.879 0 9-5.5 9-12v-80H23zM241 70v-7c0-6.505-4.121-12-9-12H32c-4.878 0-9 5.5-9 12v7z"/>
</symbol><symbol id="money-dollar" viewBox="0 0 264 264">
    <path d="M76.496 203c-37.224 0-58.82 10.707-59.034 10.815-7.187 3.635-15.966-1.762-15.966-9.816v-144c0-4.094 2.354-7.94 6-9.8 1.057-.538 26.38-13.2 69-13.2 39.06 0 73.201 24 112.001 24 37.079 0 58.846-10.72 59.062-10.829 7.203-3.619 15.939 1.938 15.939 9.83v144c0 4.136-2.404 8.014-6.108 9.853-1.082.536-26.96 13.148-68.892 13.148C149.467 226.999 115.309 203 76.496 203m111.998 2c25.343 0 43.953-5.214 53-8.42V75.738a188 188 0 0 1-53 7.262c-39.045 0-73.18-24-112-24-25.943 0-44.189 5.147-53 8.335v120.912a187.8 187.8 0 0 1 53-7.246c39.067-.002 73.222 23.999 112 23.999m-68-34.438c-6.868-1.551-12.779-6.261-15.823-12.611-1.981-3.931-1.384-8.797 1.49-12.132 4.933-5.725 14.688-4.651 18.156 2.23 1.531 3.024 11.968 2.981 13.049-.595-.145-.439-2.192-3.365-9.686-6.136-25.334-9.366-24.561-25.421-23.721-30.118 1.505-8.41 7.908-15.164 16.535-18.3 0-8.975 5.5-12.78 11-12.9s11 3.925 11 12.418c9.546 2.726 13.961 8.782 15.9 12.788 2.611 5.393.286 12.083-5.107 14.694s-12.083.285-14.694-5.107c-1.463-3.01-11.549-2.614-13.031.466a30 30 0 0 0 9.746 5.424c25.409 9.393 24.57 25.85 23.708 30.67-1.536 8.585-7.931 15.481-16.522 18.691 0 9.031-5.5 12.826-11 12.955s-10.946-3.748-10.994-12.437z"/>
</symbol><symbol id="money-euro" viewBox="0 0 264 264">
    <path d="M75.996 203c-37.225 0-58.82 10.707-59.035 10.816C9.757 217.46.996 211.905.995 204.001v-144c0-4.127 2.395-7.998 6.087-9.841 1.076-.538 26.845-13.158 69.414-13.158 38.995 0 73.052 24 111.785 24 36.6 0 58.552-10.718 58.769-10.826 7.183-3.578 15.928 1.79 15.945 9.826v144c0 4.135-2.404 8.013-6.108 9.852-1.081.537-26.96 13.147-68.892 13.147C148.965 226.997 114.808 203 75.996 203m111.999 2c25.343 0 43.953-5.214 53-8.42V75.773a186.4 186.4 0 0 1-52.715 7.226c-38.98 0-73.03-24-111.785-24-25.768 0-44.453 5.214-53.5 8.417v120.83a187.8 187.8 0 0 1 53-7.247c39.066.002 73.223 24.001 112 24.001m-86.687-47.462h-3c-5.991 0-11-5.009-11-11 0-5.016 3.533-9.507 8.408-10.689 0-.275-.005-1.52 0-1.864-4.862-1.18-8.39-5.651-8.409-10.654-.021-5.992 4.97-11.018 10.961-11.039l3.089-.011c10.561-19.523 34.158-28.555 55.251-22.254 5.737 1.728 9.089 7.969 7.36 13.706-1.728 5.734-7.965 9.085-13.7 7.36-5.917-1.756-12.433-1.395-18.094 1.08l5.1-.018c5.928-.021 11.018 4.975 11.039 10.961.021 5.991-4.969 11.018-10.961 11.039l-19.63.069a42 42 0 0 0 0 1.324l19.6.006c5.991 0 11 5.009 11 11s-5.009 11-11 11H131.6a26 26 0 0 0 11.171 2.452 25.7 25.7 0 0 0 7.51-1.094c7.382-2.217 14.871 4.128 14.109 11.648-.444 4.381-3.567 8.162-7.784 9.427C135.592 186.28 111 177 101.312 157.538z"/>
</symbol><symbol id="money-lira" viewBox="0 0 264 264">
    <path d="M75.997 203c-37.225 0-58.82 10.707-59.034 10.815C9.776 217.451.998 212.054.997 204V60c0-4.094 2.354-7.94 6-9.8 1.058-.538 26.38-13.2 69-13.2 39.059 0 73.201 23.999 112 23.999 37.078 0 58.846-10.721 59.062-10.829 7.185-3.61 15.938 1.788 15.938 9.829v144c0 4.135-2.404 8.013-6.108 9.852-1.081.537-26.959 13.148-68.892 13.148-39.031.002-73.188-23.999-112-23.999m111.998 2c25.343 0 43.953-5.214 53-8.421V75.737a188 188 0 0 1-53 7.262c-39.045 0-73.18-24.001-112-24.001-25.943 0-44.189 5.148-53 8.336v120.911a187.9 187.9 0 0 1 53-7.246c39.066.002 73.223 24.001 112 24.001m-79.998-38v-19.123a13.6 13.6 0 0 1-5 1.126c-4.549 0-8.73-2.908-10.313-7.173-2.086-5.616.865-12.056 6.481-14.142l8.831-3.28v-2.531a13.6 13.6 0 0 1-5 1.126c-4.549 0-8.73-2.908-10.313-7.173-2.086-5.616.865-12.055 6.481-14.141l8.831-3.28v-8.408c0-5.991 5.009-11 11-11 6.052.147 11.025 5.263 11 11.317l4.17-1.629c5.616-2.086 12.055.866 14.141 6.482s-.865 12.055-6.481 14.141l-11.83 4.394v2.531l4.17-1.549c5.616-2.086 12.055.866 14.141 6.482s-.865 12.056-6.481 14.142l-11.83 4.394v14.462c6.082-2.689 10.839-7.945 13.247-14.112 2.224-5.495 8.776-8.316 14.324-6.07 5.554 2.248 8.317 8.77 6.069 14.324-6.069 17.19-23.675 29.525-42.481 29.807-6.618.028-13.157-3.598-13.157-11.117"/>
</symbol><symbol id="money" viewBox="0 0 264 264">
    <path d="M76 203c-37.225 0-58.82 10.707-59.035 10.815C9.778 217.45 1 212.053 1 203.999v-144c0-4.094 2.354-7.94 6-9.8 1.057-.538 26.38-13.2 69-13.2 39.059 0 73.2 24 112 24 37.079 0 58.847-10.721 59.063-10.829 7.185-3.61 15.938 1.788 15.938 9.829v144c0 4.136-2.404 8.013-6.108 9.852-1.081.536-26.959 13.147-68.892 13.147C148.969 227.002 114.813 203 76 203m111.998 2c25.344 0 43.953-5.214 53-8.42V75.739a188 188 0 0 1-53 7.261c-39.044 0-73.179-24-111.999-24-25.942 0-44.189 5.147-53 8.335v120.911a187.8 187.8 0 0 1 53-7.247C115.06 181.001 149.225 205 187.998 205m-84-73c0-20.186 12.3-36 28-36s28 15.814 28 36-12.3 36-28 36S104 152.187 104 132z"/>
</symbol><symbol id="moneys" viewBox="0 0 264 264">
    <path d="M64 214c-29.709 0-46.7 8.644-46.871 8.731C9.939 226.466 1.025 221.12 1 213V94c0-3.976 2.221-7.73 5.707-9.643.6-.332 13.314-7.189 35.292-10.259v-24.1c0-4.089 2.35-7.93 5.99-9.792.895-.458 22.312-11.208 58.011-11.208 32.452 0 60.806 20 93 20 29.778 0 47.914-8.757 48.094-8.845 7.18-3.536 15.886 1.83 15.906 9.845v119c0 4.13-2.397 8.003-6.093 9.845-.7.351-13.848 6.783-35.907 9.717v24.438c0 4.13-2.397 8.003-6.093 9.845-.914.455-22.784 11.156-57.907 11.156C124.57 234.001 96.206 214 64 214m135-46a132.2 132.2 0 0 0 42-6.476V65.556A158.5 158.5 0 0 1 199 71c-32.441 0-60.788-20-93-20-19.851 0-34.385 3.821-42 6.433v96.49C78.11 150.488 92.495 149 107 149c31.801 0 60.198 19 92 19m-71-58.245c0-17.8 11.021-31.75 25.092-31.75s25.091 13.946 25.091 31.75-11.022 31.745-25.091 31.745S128 127.554 128 109.75z"/>
</symbol><symbol id="shopping-bag" viewBox="0 0 264 264">
    <path d="M56.5 263c-25.588-.029-46.971-21.412-47-47V92c0-5.991 5.009-11 11-11h37.807C62.249 48.521 81.022 1 132.5 1c51.98 0 70.072 47.818 73.409 80H244.5c5.991 0 11 5.009 11 11v124c-.029 25.588-21.412 46.971-47 47zM183.67 81c-2.474-18.952-12.291-58-51.17-58-38.3 0-48.949 38.313-51.893 58z"/>
</symbol><symbol id="shopping-basket" viewBox="0 0 264 264">
    <path d="M58 247c-23.945 0-42.783-18.228-46.877-45.358L1.055 101.095C.078 91.32 9.698 89.001 17.644 89.001c8.365-30.114 14.413-72 54.36-72h120c39.947 0 45.995 41.886 54.36 72 7.946 0 17.566 2.319 16.589 12.094l-10 100c-4.162 27.678-23 45.905-46.946 45.905zm-25.055-48.094c1.787 11.743 9.479 26.095 25.055 26.095h148c15.576 0 23.269-14.351 25.124-26.641l8.724-87.359H24.156zM223.528 89c-4.817-17.34-7.769-50.001-31.528-50.001H72c-23.76 0-26.711 32.66-31.528 50.001zM173 188v-40c0-5.991 5.009-11 11-11s11 5.009 11 11v40c0 5.991-5.009 11-11 11s-11-5.009-11-11m-52 0v-40c0-5.991 5.009-11 11-11s11 5.009 11 11v40c0 5.991-5.009 11-11 11s-11-5.009-11-11m-52 0v-40c0-5.991 5.009-11 11-11s11 5.009 11 11v40c0 5.991-5.009 11-11 11s-11-5.009-11-11"/>
</symbol><symbol id="shopping-cart" viewBox="0 0 264 264">
    <path d="M183.174 243h-69.347c-4.692 11.926-16.512 19.986-29.327 20-17.15-.02-31.48-14.351-31.5-31.5.003-10.131 5.038-19.852 13.311-25.7C27.154 54 19.464 23 19.464 23H12C6.009 23 1 17.991 1 12S6.009 1 12 1h16c4.964 0 9.423 3.46 10.655 8.269l8.132 31.73H252c7.436 0 12.827 7.572 10.394 14.599l-36 104C224.878 163.979 220.636 167 216 167H79.079l8.5 33.149c12.037 1.201 22.572 9.452 26.621 20.851h68.6c4.414-12.437 16.503-20.985 29.7-21 17.149.02 31.48 14.351 31.5 31.5-.02 17.149-14.351 31.48-31.5 31.5-12.815-.014-24.634-8.075-29.326-20M203 231.5c.006 5.172 4.328 9.494 9.5 9.5 5.172-.006 9.494-4.328 9.5-9.5-.005-5.172-4.328-9.495-9.5-9.5-5.172.005-9.495 4.328-9.5 9.5m-128 0c.006 5.172 4.328 9.494 9.5 9.5 5.172-.006 9.494-4.328 9.5-9.5-.006-5.172-4.328-9.494-9.5-9.5-5.172.005-9.495 4.328-9.5 9.5"/>
</symbol><symbol id="store" viewBox="0 0 264 264">
    <path d="M19.637 247c-5.991 0-11-5.009-11-11V123.746a53 53 0 0 1-6.242-11.734c-6.107-15.586 9.239-61.725 18.929-87.84 1.583-4.265 5.764-7.173 10.313-7.173h200c4.559 0 8.747 2.922 10.322 7.2 9.6 26.066 24.837 72.117 18.971 87.682a47.7 47.7 0 0 1-6.293 11.752V236c0 5.991-5.009 11-11 11zm11-22h202v-87.267c-15.687 3.464-29.519-1.814-41-12.983-19.026 18.509-40.927 16.95-60-.715-19.183 17.765-41.171 19.177-60.216.505-11.5 10.811-25.174 16.555-40.785 13.4z"/>
</symbol><symbol id="tag" viewBox="0 0 264 264">
    <path d="m70.21 250.238-56.461-56.461c-15.526-15.526-15.689-39.711-.371-55.059L147.45 4.395a11 11 0 0 1 7.767-3.229l96-.166c5.957-.019 11.002 4.94 11.022 10.948l.449 96.048a11.07 11.07 0 0 1-3.214 7.822l-134.555 134.81c-15.042 15.412-39.789 14.949-54.709-.39m89.6-227.076-130.857 131.1c-6.832 6.846-6.683 16.924.355 23.963l56.461 56.461c6.334 6.691 17.128 7.233 23.573.411l131.321-131.569-.377-80.5zm3.311 46.915c.02-17.15 14.351-31.48 31.5-31.5 17.149.02 31.48 14.35 31.5 31.5-.02 17.15-14.351 31.48-31.5 31.5-17.152-.017-31.487-14.352-31.504-31.504z"/>
</symbol><symbol id="tags" viewBox="0 0 264 264">
    <path d="m108.819 230.677-8.488-8.488c-14.168 12.815-35.132 14.689-49.105.588l-41-45c-12.324-12.266-12.313-34.216-.008-46.548 8.591-8.608 104.009-104.008 104.009-104.008A11 11 0 0 1 122.005 24h75c5.173-.001 9.762 3.753 10.785 8.824l43.464-.075c5.957-.02 11 4.941 11.021 10.949l.35 74.664a11.07 11.07 0 0 1-3.215 7.823l-104.6 104.8c-12.606 12.901-33.482 12.54-45.991-.308m15.556-15.556c3.988 4.254 10.787 4.671 14.861.317l101.36-101.555-.277-59.114c-42.05.177-42.678.231-58.8.231-9.8 9.7-22.309 22.076-101.317 101.066-4.523 4.34-3.72 10.941.572 15.156zm52.629-122.622c.016-14.427 12.073-26.484 26.5-26.5 14.427.017 26.483 12.073 26.5 26.5-.016 14.427-12.073 26.484-26.5 26.5-14.429-.014-26.488-12.071-26.504-26.5z"/>
</symbol><symbol id="ticket" viewBox="0 0 264 264">
    <path fill-rule="evenodd" clip-rule="evenodd" d="M1 193.001c0 18.14 13.165 30 31 30h200c17.466 0 30-12.534 30-30v-28c0-5.991-5.009-11-11-11-.2 0-20-1.64-20-22 0-19.771 19.184-20 20-20 5.991 0 11-5.009 11-11v-28c0-17.355-12.23-31.908-30-32H32c-18.332.01-31 14.16-31 32v28c0 5.991 5.009 11 11 11 .857 0 21 .227 21 20 0 20.359-20.79 22-21 22-5.991 0-11 5.009-11 11zm239 0c0 5.576-2.424 8-8 8H95v-138h137c5.767.143 8 4.715 8 10v18.537c-14.8 4.01-31 16.204-31 40.464 0 25.365 17.122 37.764 31 42.118z"/>
</symbol><symbol id="wallet" viewBox="0 0 264 264">
    <path d="M36 246.825c-19.055-.021-34.979-15.945-35-35v-128c.023-18.126 14.466-33.62 32.545-34.914l166.51-29.912c12.122-2.426 25.49-.46 34.18 9.043 6.967 7.623 9.1 17.63 9.672 24.61C255.501 58.579 262.99 70.806 263 83.826v128c-.022 19.055-15.945 34.978-35 35zm-13-163v128c.008 7.077 5.922 12.992 13 13h192c7.078-.008 12.992-5.923 13-13v-128c-.008-7.078-5.923-12.992-13-13H36c-7.077.008-12.992 5.922-13 13m153 64c.015-12.522 10.479-22.985 23-23 12.522.013 22.986 10.478 23 23-.014 12.522-10.478 22.986-23 23-12.522-.014-22.986-10.478-23-23"/>
</symbol></svg>