<?xml version="1.0" encoding="UTF-8"?><!DOCTYPE svg PUBLIC "-//W3C//DTD SVG 1.1//EN" "http://www.w3.org/Graphics/SVG/1.1/DTD/svg11.dtd"><svg xmlns="http://www.w3.org/2000/svg" xmlns:xlink="http://www.w3.org/1999/xlink"><defs/><symbol id="file-avi" viewBox="0 0 264 264">
    <path d="M172.623 189v-45.275h9.833V189zm-33.66 0-16.368-45.275h10.626c3.849 11.391 8.779 25.775 11.55 34.452h.4c2.829-8.177 7.624-23 11.485-34.453h10.23l-16.434 45.275zm-25.674 0-3.234-8.91H90.321L87.087 189H76.922l17.424-45.275h12.145L123.915 189zm-20.131-16.829h14.058c-2.385-6.609-4.622-13.22-6.864-19.866h-.4c-1.753 6.756-4.43 13.32-6.794 19.866"/>
    <path d="M36 263c-5.991 0-11-5.009-11-11V12c0-5.991 5.009-11 11-11h120c2.897 0 5.73 1.173 7.779 3.222l72 72A11 11 0 0 1 239 84v168c0 5.991-5.009 11-11 11zm11-22h170V94h-61c-5.447 0-10-4.553-10-10V23H47z"/>
</symbol><symbol id="file-ban" viewBox="0 0 264 264">
    <path d="M80 168c.032-28.31 23.69-51.968 52-52 28.31.032 51.968 23.69 52 52-.032 28.31-23.69 51.968-52 52a52.06 52.06 0 0 1-52-52m52 30c16.333-.018 29.982-13.667 30-30a29.8 29.8 0 0 0-3.522-14.1l-40.112 40.814A29.8 29.8 0 0 0 132 198m-30-30a29.9 29.9 0 0 0 1.777 10.177l37.909-38.572a29.9 29.9 0 0 0-9.687-1.6c-16.33.019-29.978 13.665-29.999 29.995"/>
    <path d="M36 263c-5.991 0-11-5.009-11-11V12c0-5.991 5.009-11 11-11h120c2.897 0 5.73 1.173 7.779 3.222l72 72A11 11 0 0 1 239 84v168c0 5.991-5.009 11-11 11zm11-22h170V94h-61c-5.447 0-10-4.553-10-10V23H47z"/>
</symbol><symbol id="file-check" viewBox="0 0 264 264">
    <path d="m112.222 202.778-28-28c-4.236-4.236-4.236-11.319 0-15.556 4.237-4.236 11.32-4.236 15.556 0l19.85 19.849 43.24-47.479c4.034-4.429 11.109-4.76 15.539-.726s4.76 11.11.726 15.539l-51 56c-4.174 4.582-11.497 4.782-15.911.373"/>
    <path d="M36 263c-5.991 0-11-5.009-11-11V12c0-5.991 5.009-11 11-11h120c2.897 0 5.73 1.173 7.779 3.222l72 72A11 11 0 0 1 239 84v168c0 5.991-5.009 11-11 11zm11-22h170V94h-61c-5.447 0-10-4.553-10-10V23H47z"/>
</symbol><symbol id="file-doc" viewBox="0 0 264 264">
    <path d="M163.944 179.628q-2.607-5.214-2.607-13.266 0-11.88 5.841-17.655t16.467-5.774c6.67-.107 13.843 2.193 17.721 7.92a17.43 17.43 0 0 1 2.673 9.966h-9.9c.192-5.88-4.584-9.96-10.362-9.835-4.607-.181-9.294 2.015-10.989 6.502a21 21 0 0 0-1.287 7.821v2.046c-.226 7.704 3.72 14.747 12.213 14.388 5.856.136 11.03-3.529 10.824-9.768h9.5a17.77 17.77 0 0 1-2.607 9.967c-3.836 5.8-11.123 7.974-17.787 7.854-7.779.215-16.152-2.783-19.7-10.166m-52.173-.199q-2.77-5.214-2.772-13.068 0-7.988 2.772-13.167c3.867-7.405 12.415-10.468 20.394-10.263 8.01-.224 16.581 2.824 20.459 10.263q2.773 5.181 2.772 13.167 0 7.854-2.772 13.068c-3.864 7.466-12.42 10.589-20.459 10.362-8.051.208-16.51-2.872-20.394-10.362m7.394-14.061v2.046c-.121 8.07 4.496 14.474 13.002 14.323 8.224.159 13.257-6.234 13.133-14.323v-2.046c.126-8.146-4.574-14.55-13.133-14.385-8.409-.149-13.126 6.191-13.002 14.385m-56.892 23.631v-45.275h18.48c14.045-.406 22.308 9.373 22.308 22.638 0 13.255-8.283 23.044-22.308 22.638zm9.834-8.118h8.58c8.082.138 12.34-5.868 12.21-13.531v-1.98c.129-7.618-4.138-13.736-12.21-13.597h-8.58z"/>
    <path d="M36 263c-5.991 0-11-5.009-11-11V12c0-5.991 5.009-11 11-11h120c2.897 0 5.73 1.173 7.779 3.222l72 72A11 11 0 0 1 239 84v168c0 5.991-5.009 11-11 11zm11-22h170V94h-61c-5.447 0-10-4.553-10-10V23H47z"/>
</symbol><symbol id="file-download" viewBox="0 0 264 264">
    <path d="m122.718 220.191-39-39.012c-4.237-4.237-4.237-11.32 0-15.557 4.23-4.241 11.332-4.242 15.562.001l21.147 21.155V121.5c0-5.991 5.009-11 11-11s11 5.009 11 11v65.624l21.337-21.345c4.237-4.237 11.32-4.237 15.557 0 4.236 4.236 4.236 11.32 0 15.556l-39.945 39.96c-4.652 4.654-12.624 4.126-16.658-1.104"/>
    <path d="M36 263c-5.991 0-11-5.009-11-11V12c0-5.991 5.009-11 11-11h120c2.897 0 5.73 1.173 7.779 3.222l72 72A11 11 0 0 1 239 84v168c0 5.991-5.009 11-11 11zm11-22h170V94h-61c-5.447 0-10-4.553-10-10V23H47z"/>
</symbol><symbol id="file-gif" viewBox="0 0 264 264">
    <path d="M84.216 184.083q-5.776-5.709-5.775-17.721 0-7.984 2.77-13.167c3.931-7.498 12.666-10.479 20.724-10.263 7.397-.046 16.079 2.189 19.903 9.141a14.94 14.94 0 0 1 1.683 7.294h-9.967c.114-5.96-6.257-8.404-11.287-8.383-8.802-.164-13.807 5.816-13.663 14.388v1.979c-.289 8.185 4.373 14.677 13.003 14.388 6.136.113 12.141-2.984 12.141-9.702h-13.531v-7.524h23.3V189h-6.468l-.858-4.885c-4.179 4.077-9.754 5.734-15.507 5.677q-10.693 0-16.468-5.709M152.889 189v-45.276h33.4v8.051h-23.561v11.22h21.054v7.986h-21.054V189zm-19.866 0v-45.276h9.833V189z"/>
    <path d="M36 263c-5.991 0-11-5.009-11-11V12c0-5.991 5.009-11 11-11h120c2.897 0 5.73 1.173 7.779 3.222l72 72A11 11 0 0 1 239 84v168c0 5.991-5.009 11-11 11zm11-22h170V94h-61c-5.447 0-10-4.553-10-10V23H47z"/>
</symbol><symbol id="file-jpg" viewBox="0 0 264 264">
    <path d="M157.047 184.083q-5.775-5.709-5.775-17.721 0-7.986 2.772-13.167c3.93-7.498 12.666-10.48 20.724-10.263 7.397-.045 16.079 2.189 19.902 9.141a14.94 14.94 0 0 1 1.684 7.293h-9.966a7.27 7.27 0 0 0-.892-3.629c-2.016-3.568-6.561-4.769-10.395-4.753-5.692-.107-11.085 2.353-12.805 8.118a20.8 20.8 0 0 0-.858 6.269v1.981a19.6 19.6 0 0 0 1.452 8.118c1.959 4.489 6.889 6.426 11.55 6.27 3.866.072 8.119-1.065 10.59-4.224 1.2-1.64 1.551-3.493 1.551-5.478h-13.53v-7.524h23.3V189h-6.468l-.859-4.884c-4.18 4.076-9.751 5.733-15.505 5.675q-10.697.001-16.472-5.708m-84.15 4.158c-5.052-2.023-7.763-7.198-7.556-12.507v-2.046h9.635v2.046c-.304 3.834 3.075 6.283 6.732 6.006 4.525.299 6.796-4.314 6.535-8.317v-29.7h9.9v29.7c.196 5.744-2.039 11.973-7.49 14.586-5.465 2.471-12.2 2.401-17.753.233zm35.079.758v-45.276h23.563c5.233-.182 10.641 2.077 13.1 6.897a16.7 16.7 0 0 1 1.683 7.755 16.6 16.6 0 0 1-1.749 7.821c-2.539 4.88-8.036 7.199-13.365 7.029h-13.4V189zm9.834-23.826h12.078c3.808.242 6.693-2.954 6.467-6.732.132-3.894-2.495-6.817-6.47-6.666h-12.078z"/>
    <path d="M36 263c-5.991 0-11-5.009-11-11V12c0-5.991 5.009-11 11-11h120c2.897 0 5.73 1.173 7.779 3.222l72 72A11 11 0 0 1 239 84v168c0 5.991-5.009 11-11 11zm11-22h170V94h-61c-5.447 0-10-4.553-10-10V23H47z"/>
</symbol><symbol id="file-minus" viewBox="0 0 264 264">
    <path d="M91.5 177.5c-5.991 0-11-5.009-11-11s5.009-11 11-11h80c5.991 0 11 5.009 11 11s-5.009 11-11 11z"/>
    <path d="M36 263c-5.991 0-11-5.009-11-11V12c0-5.991 5.009-11 11-11h120c2.897 0 5.73 1.173 7.779 3.222l72 72A11 11 0 0 1 239 84v168c0 5.991-5.009 11-11 11zm11-22h170V94h-61c-5.447 0-10-4.553-10-10V23H47z"/>
</symbol><symbol id="file-mp3" viewBox="0 0 264 264">
    <path d="M168.398 183.324c-1.553-2.515-1.913-5.237-1.913-8.122h8.91c0 4.601 2.48 7.808 7.591 7.457 3.975.244 7.863-2.537 7.523-6.731.281-4.411-3.518-6.572-7.458-6.534h-4.026v-6.93h3.96c3.671.057 6.763-2.512 6.601-6.336.143-3.828-2.909-6.139-6.536-6.072-4.378-.062-6.731 2.846-6.731 6.929h-8.779c0-2.914.235-5.652 1.947-8.149 3.082-4.31 8.648-6.01 13.761-5.907 5.046-.103 10.644 1.417 13.696 5.708a11.35 11.35 0 0 1 1.946 6.633c.06 3.003-1.217 5.927-3.497 7.887a15.2 15.2 0 0 1-3.631 2.277v.264a11.6 11.6 0 0 1 5.841 3.862 11.1 11.1 0 0 1 2.277 7.227 12.1 12.1 0 0 1-2.079 6.864c-3.228 4.517-9.069 6.262-14.421 6.138-5.572.172-11.778-1.562-14.982-6.465m-44.747 5.675v-45.276h23.562c5.234-.183 10.641 2.077 13.101 6.897a16.75 16.75 0 0 1 1.682 7.756 16.6 16.6 0 0 1-1.749 7.82c-2.538 4.88-8.037 7.2-13.365 7.03h-13.4V189zm9.833-23.826h12.079c3.808.241 6.693-2.954 6.467-6.732.13-3.815-2.498-6.817-6.471-6.666H133.48zm-29.568 23.826c0-11.856.265-23.72.265-35.57h-.528c-2.153 8.571-6.462 23.869-9.767 35.575h-8.58c-3.382-11.832-6.533-23.71-9.769-35.574h-.529c.446 11.855.33 23.713.33 35.574h-9.24v-45.276H81.08C84 155 87 166 89.857 176.264h.528C93 166 96 155 98.898 143.726h14.718V189z"/>
    <path d="M36 263c-5.991 0-11-5.009-11-11V12c0-5.991 5.009-11 11-11h120c2.897 0 5.73 1.173 7.779 3.222l72 72A11 11 0 0 1 239 84v168c0 5.991-5.009 11-11 11zm11-22h170V94h-61c-5.447 0-10-4.553-10-10V23H47z"/>
</symbol><symbol id="file-mpg" viewBox="0 0 264 264">
    <path d="M166.055 184.083q-5.774-5.709-5.774-17.721 0-7.986 2.771-13.167c3.931-7.498 12.665-10.479 20.723-10.263 5.287-.033 10.77 1.049 15.216 4.026 4.12 2.76 6.499 7.457 6.37 12.408h-9.966c.112-5.862-6.246-8.402-11.287-8.381-5.69-.107-11.085 2.353-12.803 8.117a20.8 20.8 0 0 0-.858 6.27v1.98a19.6 19.6 0 0 0 1.452 8.118c1.959 4.488 6.888 6.426 11.549 6.27 6.146.114 12.141-3.061 12.141-9.703h-13.53v-7.524h23.3V189h-6.469l-.857-4.884c-4.181 4.075-9.753 5.734-15.507 5.676q-10.694 0-16.47-5.709zm-49.2 4.917v-45.275h23.562c5.234-.183 10.641 2.077 13.101 6.897a16.7 16.7 0 0 1 1.683 7.755 16.6 16.6 0 0 1-1.75 7.821c-2.539 4.879-8.037 7.199-13.365 7.029h-13.4V189zm9.834-23.825h12.079c3.807.242 6.693-2.956 6.468-6.732.131-3.894-2.495-6.817-6.471-6.666h-12.079zM96.989 189c0-11.856.266-23.72.266-35.57h-.528c-2.19 12.025-6.462 23.867-9.767 35.574h-8.581c-3.381-11.835-6.535-23.71-9.768-35.573h-.528c.329 12.069.329 23.711.329 35.573h-9.24v-45.275h14.982c3.01 10.778 6.846 24.771 8.78 32.535h.527C85.5 167.5 89 155 91.975 143.726h14.718V189z"/>
    <path d="M36 263c-5.991 0-11-5.009-11-11V12c0-5.991 5.009-11 11-11h120c2.897 0 5.73 1.173 7.779 3.222l72 72A11 11 0 0 1 239 84v168c0 5.991-5.009 11-11 11zm11-22h170V94h-61c-5.447 0-10-4.553-10-10V23H47z"/>
</symbol><symbol id="file-pdf" viewBox="0 0 264 264">
    <path d="M161.451 189v-42.533h31.371v7.565h-22.133v10.539h19.778v7.5h-19.778V189zm-45.818 0v-42.533h17.359c7.234-.21 14.943 2.558 18.446 9.269q2.51 4.682 2.51 12a25.3 25.3 0 0 1-2.51 11.965c-3.484 6.736-11.202 9.509-18.446 9.301zm9.238-7.627h8.06c4.87.083 9.316-2.296 10.73-7.16a18.7 18.7 0 0 0 .744-5.549v-1.86a18.7 18.7 0 0 0-.744-5.549c-1.407-4.839-5.868-7.307-10.73-7.223h-8.06zM73.411 189v-42.533h22.134c4.916-.173 9.997 1.95 12.307 6.479a15.7 15.7 0 0 1 1.582 7.284 15.6 15.6 0 0 1-1.644 7.348c-2.385 4.583-7.55 6.762-12.555 6.603H82.65V189zm9.238-22.383h11.346c3.578.23 6.294-2.775 6.082-6.324.122-3.659-2.343-6.401-6.077-6.261H82.654z"/>
    <path d="M36 263c-5.991 0-11-5.009-11-11V12c0-5.991 5.009-11 11-11h120c2.897 0 5.73 1.173 7.779 3.222l72 72A11 11 0 0 1 239 84v168c0 5.991-5.009 11-11 11zm11-22h170V94h-61c-5.447 0-10-4.553-10-10V23H47z"/>
</symbol><symbol id="file-plus" viewBox="0 0 264 264">
    <path d="M121 207v-29.5H91.5c-5.991 0-11-5.009-11-11s5.009-11 11-11H121V127c0-5.991 5.009-11 11-11s11 5.009 11 11v28.5h28.5c5.991 0 11 5.009 11 11s-5.009 11-11 11H143V207c0 5.991-5.009 11-11 11s-11-5.009-11-11"/>
    <path d="M36 263c-5.991 0-11-5.009-11-11V12c0-5.991 5.009-11 11-11h120c2.897 0 5.73 1.173 7.779 3.222l72 72A11 11 0 0 1 239 84v168c0 5.991-5.009 11-11 11zm11-22h170V94h-61c-5.447 0-10-4.553-10-10V23H47z"/>
</symbol><symbol id="file-png" viewBox="0 0 264 264">
    <path d="M162.029 184.081q-5.774-5.708-5.774-17.721 0-7.986 2.772-13.166c3.93-7.499 12.666-10.479 20.725-10.263 7.397-.046 16.079 2.188 19.903 9.14a15 15 0 0 1 1.683 7.294h-9.966c.113-5.957-6.264-8.399-11.291-8.379-5.691-.107-11.086 2.354-12.804 8.119a20.8 20.8 0 0 0-.858 6.27v1.979a19.5 19.5 0 0 0 1.453 8.118c1.957 4.489 6.889 6.425 11.549 6.27 6.137.113 12.14-2.984 12.14-9.703h-13.529v-7.524h23.3v24.484h-6.468l-.859-4.884c-4.177 4.078-9.753 5.735-15.505 5.677q-10.7 0-16.471-5.71zm-23.2 4.917C131.831 179.594 125 170 117.775 160.222h-.33v28.777h-9.306v-45.276h9.041c6.792 9.105 14.32 19.277 21.055 28.577h.33v-28.578h9.307v45.277zm-75.637 0v-45.276h23.562c5.234-.182 10.641 2.076 13.102 6.897a16.7 16.7 0 0 1 1.683 7.755 16.6 16.6 0 0 1-1.75 7.821c-2.54 4.88-8.037 7.199-13.365 7.029h-13.4v15.775zm9.834-23.826h12.079c3.808.242 6.692-2.953 6.468-6.731.132-3.895-2.497-6.819-6.472-6.668H73.02z"/>
    <path d="M36 263c-5.991 0-11-5.009-11-11V12c0-5.991 5.009-11 11-11h120c2.897 0 5.73 1.173 7.779 3.222l72 72A11 11 0 0 1 239 84v168c0 5.991-5.009 11-11 11zm11-22h170V94h-61c-5.447 0-10-4.553-10-10V23H47z"/>
</symbol><symbol id="file-ppt" viewBox="0 0 264 264">
    <path d="M171.369 189v-37.026h-14.52v-8.25h39.006v8.25h-14.586V189zm-54.912 0v-45.276h23.562c5.233-.183 10.641 2.076 13.101 6.897a16.74 16.74 0 0 1 1.683 7.755 16.6 16.6 0 0 1-1.75 7.821c-2.539 4.879-8.037 7.199-13.365 7.029h-13.4V189zm9.834-23.826h12.078c3.807.241 6.692-2.955 6.467-6.732.131-3.894-2.494-6.819-6.471-6.667h-12.074zM71.511 189v-45.276h23.562c5.233-.183 10.641 2.076 13.101 6.897a16.74 16.74 0 0 1 1.683 7.755 16.6 16.6 0 0 1-1.75 7.821c-2.539 4.879-8.037 7.199-13.365 7.029h-13.4V189zm9.834-23.826h12.078c3.807.241 6.692-2.955 6.467-6.732.131-3.894-2.495-6.819-6.471-6.667H81.345z"/>
    <path d="M36 263c-5.991 0-11-5.009-11-11V12c0-5.991 5.009-11 11-11h120c2.897 0 5.73 1.173 7.779 3.222l72 72A11 11 0 0 1 239 84v168c0 5.991-5.009 11-11 11zm11-22h170V94h-61c-5.447 0-10-4.553-10-10V23H47z"/>
</symbol><symbol id="file-rar" viewBox="0 0 264 264">
    <path d="m191.334 189-7.986-16.5h-12.606V189h-9.833v-45.276h24.816c5.237-.184 10.824 1.911 13.331 6.765a15.84 15.84 0 0 1 1.651 7.359 15.25 15.25 0 0 1-1.98 7.821 12.8 12.8 0 0 1-5.742 5.18l9.239 18.15zm-20.592-24.288H184.4c3.756.217 6.468-3.077 6.271-6.732.103-3.742-2.519-6.395-6.27-6.271h-13.662zM144.87 189l-3.235-8.91H121.9l-3.235 8.91H108.5l17.424-45.276h12.144L155.5 189zm-20.131-16.829H138.8c-2.385-6.609-4.624-13.219-6.865-19.866h-.4c-2.035 6.695-4.426 13.3-6.796 19.866M95.37 189l-7.987-16.5H74.778V189h-9.834v-45.276H89.76c5.237-.184 10.825 1.911 13.332 6.765a15.84 15.84 0 0 1 1.65 7.359 15.25 15.25 0 0 1-1.98 7.821 12.8 12.8 0 0 1-5.742 5.18l9.24 18.15zm-20.592-24.288H88.44c3.755.218 6.467-3.078 6.27-6.732.1-3.664-2.52-6.395-6.269-6.271H74.779z"/>
    <path d="M36 263c-5.991 0-11-5.009-11-11V12c0-5.991 5.009-11 11-11h120c2.897 0 5.73 1.173 7.779 3.222l72 72A11 11 0 0 1 239 84v168c0 5.991-5.009 11-11 11zm11-22h170V94h-61c-5.447 0-10-4.553-10-10V23H47z"/>
</symbol><symbol id="file-remove" viewBox="0 0 264 264">
    <path d="m152.007 203.062-20.506-20.506-20.506 20.506c-4.237 4.236-11.32 4.236-15.556 0-4.237-4.237-4.237-11.32 0-15.557l20.506-20.506-20.506-20.506c-4.236-4.236-4.236-11.32 0-15.556s11.319-4.236 15.556 0l20.506 20.506 20.506-20.506c4.237-4.237 11.32-4.237 15.557 0 4.236 4.236 4.236 11.32 0 15.556l-20.506 20.506 20.506 20.506c4.237 4.237 4.237 11.32 0 15.557-4.23 4.241-11.328 4.241-15.558 0z"/>
    <path d="M36 263c-5.991 0-11-5.009-11-11V12c0-5.991 5.009-11 11-11h120c2.897 0 5.73 1.173 7.779 3.222l72 72A11 11 0 0 1 239 84v168c0 5.991-5.009 11-11 11zm11-22h170V94h-61c-5.447 0-10-4.553-10-10V23H47z"/>
</symbol><symbol id="file-search" viewBox="0 0 264 264">
    <path d="m158.808 223.714-19.36-19.652a44.13 44.13 0 0 1-27.638 5.3c-21.543-2.928-38.1-21.844-38.1-43.629 0-24 20.024-44.024 44.024-44.024 22.071 0 41.143 16.987 43.727 38.867a44.13 44.13 0 0 1-6.181 28.204l19.2 19.494c4.205 4.268 4.151 11.351-.117 15.556-4.282 4.229-11.372 4.141-15.555-.116m-63.109-57.98c0 12.012 10.024 22.036 22.036 22.036s22.036-10.024 22.036-22.036c0-11.988-10.154-22.057-22.036-22.036-11.971-.021-22.036 9.97-22.036 22.036"/>
    <path d="M36 263c-5.991 0-11-5.009-11-11V12c0-5.991 5.009-11 11-11h120c2.897 0 5.73 1.173 7.779 3.222l72 72A11 11 0 0 1 239 84v168c0 5.991-5.009 11-11 11zm11-22h170V94h-61c-5.447 0-10-4.553-10-10V23H47z"/>
</symbol><symbol id="file-svg" viewBox="0 0 264 264">
    <path d="M159.456 184.083q-5.775-5.709-5.775-17.721 0-7.986 2.772-13.167c3.931-7.498 12.666-10.48 20.724-10.264 9.978-.061 21.887 4.98 21.585 16.435h-9.966c.114-5.96-6.256-8.403-11.286-8.382-5.691-.107-11.086 2.352-12.805 8.118a20.8 20.8 0 0 0-.858 6.27v1.98a19.6 19.6 0 0 0 1.452 8.118c1.959 4.488 6.89 6.426 11.55 6.27 6.145.113 12.141-3.061 12.141-9.703h-13.531v-7.524h23.3v24.486h-6.468l-.858-4.884c-4.179 4.076-9.753 5.734-15.506 5.676q-10.696.001-16.471-5.708m-94.179-2.047c-1.134-2.079-2.16-5.32-1.485-7.754h9.769c-1.658 5.708 5.633 7.661 9.704 7.589 3.37.029 9.512-.523 9.439-5.082.15-4.152-5.716-5.459-8.844-6.266-7.767-2.043-19.435-4.383-19.14-14.656-.261-9.73 10.614-12.998 18.677-12.938 9.12-.046 18.154 4.068 18.154 14.058h-9.57c0-4.606-4.474-6.351-8.514-6.269-2.95-.057-8.74.417-8.712 4.487-.148 5.729 10.27 6.039 13.992 7.062 6.484 1.779 14.208 5.265 13.992 13.068a13.1 13.1 0 0 1-2.508 8.382c-3.974 4.881-10.838 6.169-16.83 6.073-6.613.035-14.52-1.583-18.124-7.754m57.45 6.964-16.368-45.276h10.626c3.85 11.395 8.515 25.276 11.55 34.452h.4c3.565-10.676 7.624-22.999 11.485-34.453h10.23l-16.434 45.276z"/>
    <path d="M36 263c-5.991 0-11-5.009-11-11V12c0-5.991 5.009-11 11-11h120c2.897 0 5.73 1.173 7.779 3.222l72 72A11 11 0 0 1 239 84v168c0 5.991-5.009 11-11 11zm11-22h170V94h-61c-5.447 0-10-4.553-10-10V23H47z"/>
</symbol><symbol id="file-tiff" viewBox="0 0 264 264">
    <path d="M168.1 189v-45.276h33.4v8.052h-23.562v11.22h21.054v7.986h-21.054V189zm-41.052 0v-45.276h33.4v8.052h-23.562v11.22h21.054v7.986h-21.054V189zm-19.866 0v-45.276h9.833V189zm-31.153 0v-37.026h-14.52v-8.25h39.006v8.25H85.929V189z"/>
    <path d="M36 263c-5.991 0-11-5.009-11-11V12c0-5.991 5.009-11 11-11h120c2.897 0 5.73 1.173 7.779 3.222l72 72A11 11 0 0 1 239 84v168c0 5.991-5.009 11-11 11zm11-22h170V94h-61c-5.447 0-10-4.553-10-10V23H47z"/>
</symbol><symbol id="file-txt" viewBox="0 0 264 264">
    <path d="M170.148 189v-37.026h-14.52v-8.249h39.006v8.249h-14.586V189zm-27.456 0-10.89-16.763h-.329L120.649 189H109.3l16.3-23.826-14.718-21.45h12.011l9.373 14.322h.329l9.306-14.322h11.286l-14.783 21.45 16.3 23.826zm-58.806 0v-37.026h-14.52v-8.249h39.006v8.249H93.786V189z"/>
    <path d="M36 263c-5.991 0-11-5.009-11-11V12c0-5.991 5.009-11 11-11h120c2.897 0 5.73 1.173 7.779 3.222l72 72A11 11 0 0 1 239 84v168c0 5.991-5.009 11-11 11zm11-22h170V94h-61c-5.447 0-10-4.553-10-10V23H47z"/>
</symbol><symbol id="file-upload" viewBox="0 0 264 264">
    <path d="M120.426 213.515v-65.279L99.28 169.39c-4.237 4.237-11.32 4.237-15.557 0s-4.237-11.32 0-15.557l38.994-39.008c4.034-5.233 12.011-5.756 16.663-1.101l39.945 39.959c4.236 4.236 4.236 11.32 0 15.556-4.192 4.192-11.325 4.233-15.557 0l-21.337-21.346v65.624c0 5.991-5.009 11-11 11-5.994.003-11.006-5.008-11.005-11.002"/>
    <path d="M36 263c-5.991 0-11-5.009-11-11V12c0-5.991 5.009-11 11-11h120c2.897 0 5.73 1.173 7.779 3.222l72 72A11 11 0 0 1 239 84v168c0 5.991-5.009 11-11 11zm11-22h170V94h-61c-5.447 0-10-4.553-10-10V23H47z"/>
</symbol><symbol id="file-write" viewBox="0 0 264 264">
    <path d="M119.712 226.5c-5.211-2.956-7.096-9.784-4.14-14.995 2.931-5.167 9.676-7.074 14.878-4.206 5.489 2.857 8.107-.637 9.557-5.782 1.508-5.348 6.971-8.797 12.448-7.857 5.43.932 9.619 4.224 13.316 7.128 7.447 5.852 11.269 5.721 17.677-1.553 3.961-4.496 11.03-4.943 15.526-.982 4.499 3.961 4.935 11.047.982 15.527-3.5 3.978-10.684 10.966-19.39 13.073-11.166 2.7-19.707-2.259-25.516-6.556a25.4 25.4 0 0 1-10.55 8.246c-8.003 3.262-17.291 1.986-24.788-2.043"/>
    <path d="M36 263c-5.991 0-11-5.009-11-11V12c0-5.991 5.009-11 11-11h120c2.897 0 5.73 1.173 7.779 3.222l72 72A11 11 0 0 1 239 84v168c0 5.991-5.009 11-11 11zm11-22h170V94h-61c-5.447 0-10-4.553-10-10V23H47z"/>
    <path d="m62.506 216.927 16.457-36.212a5.7 5.7 0 0 1 1.158-1.674l67.03-67.115c5.243-5.233 14-5.235 19.245-.004l8.68 8.678c5.232 5.242 5.232 13.994 0 19.237l-67.027 67.112a5.7 5.7 0 0 1-1.694 1.172l-36.296 16.378c-4.694 2.12-9.681-2.888-7.553-7.572"/>
</symbol><symbol id="file-xls" viewBox="0 0 264 264">
    <path d="M118.408 189v-45.276h9.834v36.895h22.836v8.382zm-17.622 0-10.89-16.764h-.33L78.743 189H67.39l16.3-23.826-14.719-21.451h12.012l9.372 14.323h.33l9.306-14.323h11.286l-14.784 21.451 16.3 23.826z"/>
    <path d="M36 263c-5.991 0-11-5.009-11-11V12c0-5.991 5.009-11 11-11h120c2.897 0 5.73 1.173 7.779 3.222l72 72A11 11 0 0 1 239 84v168c0 5.991-5.009 11-11 11zm11-22h170V94h-61c-5.447 0-10-4.553-10-10V23H47z"/>
    <path d="M165.322 174.283h-9.769c-.675 2.433.351 5.674 1.485 7.754 3.604 6.17 11.511 7.788 18.124 7.754 5.992.095 12.856-1.192 16.83-6.073a13.1 13.1 0 0 0 2.508-8.382c.216-7.803-7.508-11.29-13.992-13.068-3.722-1.024-14.14-1.333-13.992-7.062-.029-4.07 5.762-4.544 8.712-4.487 4.04-.083 8.514 1.662 8.514 6.269h9.57c0-9.991-9.034-14.105-18.154-14.058-8.063-.06-18.938 3.207-18.677 12.938-.295 10.272 11.373 12.613 19.14 14.656 3.128.806 8.994 2.113 8.844 6.266.073 4.558-6.069 5.11-9.439 5.082-4.071.071-11.362-1.882-9.704-7.589"/>
</symbol><symbol id="file-xml" viewBox="0 0 264 264">
    <path d="M169.587 189v-45.276h9.833v36.895h22.837v8.382zm-19.734 0c0-11.856.264-23.721.264-35.57h-.527c-2.186 12.025-6.463 23.868-9.768 35.575h-8.58c-3.382-11.836-6.54-23.711-9.767-35.574h-.528c.439 11.855.33 23.712.33 35.574h-9.24v-45.276h14.982c3.008 10.776 6.481 23.771 8.777 32.536h.528c2.176-8.765 5.55-21.952 8.514-32.539h14.718v45.276zm-55.44 0-10.89-16.764h-.33L72.37 189H61.017l16.3-23.826-14.719-21.451H74.61l9.372 14.323h.33l9.306-14.323h11.286L90.12 165.174 106.42 189z"/>
    <path d="M36 263c-5.991 0-11-5.009-11-11V12c0-5.991 5.009-11 11-11h120c2.897 0 5.73 1.173 7.779 3.222l72 72A11 11 0 0 1 239 84v168c0 5.991-5.009 11-11 11zm11-22h170V94h-61c-5.447 0-10-4.553-10-10V23H47z"/>
</symbol><symbol id="file-zip" viewBox="0 0 264 264">
    <path d="M146.525 189v-45.276h23.562c5.233-.183 10.641 2.076 13.101 6.897a16.7 16.7 0 0 1 1.683 7.755 16.6 16.6 0 0 1-1.749 7.821c-2.539 4.878-8.037 7.199-13.365 7.029h-13.4V189zm9.834-23.826h12.078c3.808.241 6.692-2.955 6.468-6.732.129-3.816-2.498-6.818-6.471-6.667h-12.078zM126.659 189v-45.276h9.834V189zm-46.266 0v-4.224l23.5-33H82.047v-8.052h36.7v4.225l-23.5 32.934h24.025v8.118z"/>
    <path d="M36 263c-5.991 0-11-5.009-11-11V12c0-5.991 5.009-11 11-11h120c2.897 0 5.73 1.173 7.779 3.222l72 72A11 11 0 0 1 239 84v168c0 5.991-5.009 11-11 11zm11-22h170V94h-61c-5.447 0-10-4.553-10-10V23H47z"/>
</symbol><symbol id="file" viewBox="0 0 264 264">
    <path d="M36 263c-5.991 0-11-5.009-11-11V12c0-5.991 5.009-11 11-11h120c2.897 0 5.73 1.173 7.779 3.222l72 72A11 11 0 0 1 239 84v168c0 5.991-5.009 11-11 11zm11-22h170V94h-61c-5.447 0-10-4.553-10-10V23H47z"/>
</symbol><symbol id="files" viewBox="0 0 264 264">
    <path d="M36.5 263c-5.991 0-11-5.009-11-11V52c0-5.991 5.009-11 11-11h29V12c0-5.991 5.009-11 11-11h80c2.897 0 5.73 1.173 7.779 3.222l72 72A11 11 0 0 1 239.5 84v128c0 5.991-5.009 11-11 11h-29v29c0 5.991-5.009 11-11 11zm181-62V94h-61c-5.447 0-10-4.553-10-10V23h-59v178z"/>
</symbol></svg>