<?xml version="1.0" encoding="UTF-8"?><!DOCTYPE svg PUBLIC "-//W3C//DTD SVG 1.1//EN" "http://www.w3.org/Graphics/SVG/1.1/DTD/svg11.dtd"><svg xmlns="http://www.w3.org/2000/svg" xmlns:xlink="http://www.w3.org/1999/xlink"><defs/><symbol id="chef" viewBox="0 0 264 264">
    <path d="M38.997 263.004c-5.991 0-11-5.009-11-11v-97.9c-17.023-11.849-27-31.242-27-53.1 0-39.024 35.003-70 73.367-64.365C85.489 14.993 107.245 1 130.997 1c24.282 0 46.415 14 57.618 35.642 39.385-6.138 74.386 24.953 74.386 64.363-.049 21.041-10.668 41.183-28 53.113v97.887c0 5.991-5.009 11-11 11zm174-61v-54c.001-3.973 2.219-7.723 5.7-9.637 13.639-7.296 22.352-21.895 22.3-37.363 0-29.662-28.497-49-56.425-41.31-5.417 1.304-11.11-1.795-12.955-7.053-6.123-17.453-22.826-29.642-40.62-29.642-17.752 0-33.3 11.635-39.621 29.642-1.845 5.258-7.538 8.357-12.955 7.053-28.424-8.19-55.424 11.94-55.424 41.31 0 16.053 7.964 30.021 21.3 37.363 3.481 1.914 5.7 5.664 5.7 9.637v54z"/>
</symbol><symbol id="coffee" viewBox="0 0 264 264">
    <path d="M12 239c-5.991 0-11-5.009-11-11s5.009-11 11-11h240c5.991 0 11 5.009 11 11s-5.009 11-11 11zm80-33c-36.476-.041-66.96-30.524-67-67V59c.021-19.055 15.945-34.979 35-35h120c14.917.018 28.523 9.845 33.23 24H220c23.41.027 42.973 19.59 43 43v16c-.027 23.41-19.59 42.973-43 43h-5.9c-5.353 31.891-33.763 55.96-66.1 56zm128-78c11.433-.014 20.986-9.567 21-21V91c-.013-11.433-9.567-20.987-21-21h-5v58z"/>
</symbol><symbol id="cup" viewBox="0 0 264 264">
    <path d="M68.001 247c-36.476-.041-66.959-30.524-67-67V52c.022-19.055 15.945-34.978 35-35h120c17.921.022 33.314 14.147 34.872 32H200c34.299.039 62.961 28.701 63 63v8c-.039 34.299-28.701 62.961-63 63h-9.066c-1.625 35.302-31.594 63.958-66.933 64zm132-86c22.321-.025 40.975-18.679 41-41v-8c-.025-22.321-18.679-40.975-41-41h-9v90z"/>
</symbol><symbol id="fork-knife" viewBox="0 0 264 264">
    <path d="M51 235V116c-17.246-7.208-30-23.831-30-43.001v-60c0-5.991 5.009-11 11-11 5.992 0 11 5.008 11 11v60c0 13.551 11.907 25 26 25h16c14.093 0 26-11.449 26-25v-60c0-5.991 5.009-11 11-11s11 5.009 11 11v60c0 19.145-12.789 35.777-30 43.001l-.013 118.454c.014 17.891-8.641 27.545-25.987 27.545C59.906 262 51 252.645 51 235M80.999 73V13c0-5.991 5.009-11 11-11s11 5.009 11 11v60c0 5.991-5.009 11-11 11s-11-5.009-11-11m-30 0V13c0-5.991 5.009-11 11-11s11 5.009 11 11v60c0 5.991-5.009 11-11 11s-11-5.01-11-11m136 165 .433-91c-5.141-10.349-20.29-44.958-13.162-76.431 8.24-36.38 45.344-65.967 46.92-67.21 3.276-2.581 7.857-3.077 11.61-1.256 3.755 1.82 6.201 5.727 6.2 9.9l-.018 225.377c.018 17.447-8.6 25.623-25.982 25.623s-26.001-8.18-26.001-25.003m30-104V38.028c-8.752 10.007-18.091 23.358-21.271 37.4-4.9 21.633 5.018 47.349 10.13 58.57z"/>
</symbol><symbol id="fork-spoon" viewBox="0 0 264 264">
    <path d="M43 235V116c-17.246-7.208-30-23.831-30-43.001v-60c0-5.991 5.009-11 11-11s11 5.008 11 11v60c0 13.551 11.907 25 26 25h16c14.093 0 26-11.449 26-25v-60c0-5.991 5.009-11 11-11s11 5.009 11 11v60c0 19.145-12.789 35.777-30 43.001l-.013 118.454c.014 17.891-8.641 27.545-25.987 27.545C51.906 262 43 252.645 43 235M72.999 73V13c0-5.991 5.009-11 11-11s11 5.009 11 11v60c0 5.991-5.009 11-11 11s-11-5.009-11-11m-30 0V13c0-5.991 5.009-11 11-11s11 5.009 11 11v60c0 5.991-5.009 11-11 11s-11-5.01-11-11m127.002 163V117C151.873 107.494 141 89.672 141 69c0-32.965 19.276-68 55-68s55 35.035 55 68c0 21.632-10.86 38.915-29 48l.986 118.445c.013 17.9-9.64 27.554-26.986 27.554-17.093.001-25.999-9.354-25.999-26.999m38.041-136.594c7.5-2.52 20.959-10.057 20.959-30.406 0-22.3-11.566-46-33-46s-33 23.7-33 46c0 20.774 15.671 28.282 22.451 30.555 7.538 1.777 15.08 1.796 22.59-.149"/>
</symbol><symbol id="fork" viewBox="0 0 264 264">
    <path d="M106 235V116c-17.246-7.208-30-23.831-30-43.001v-60c0-5.991 5.009-11 11-11 5.992 0 11 5.008 11 11v60c0 13.551 11.907 25 26 25h16c14.093 0 26-11.449 26-25v-60c0-5.991 5.009-11 11-11s11 5.009 11 11v60c0 19.145-12.789 35.777-30 43.001l-.013 118.454c.014 17.891-8.641 27.545-25.987 27.545-17.094.001-26-9.354-26-26.999m29.999-162V13c0-5.991 5.009-11 11-11s11 5.009 11 11v60c0 5.991-5.009 11-11 11s-11-5.009-11-11m-30 0V13c0-5.991 5.009-11 11-11s11 5.009 11 11v60c0 5.991-5.009 11-11 11s-11-5.01-11-11"/>
</symbol><symbol id="knife" viewBox="0 0 264 264">
    <path d="m110.567 238 .433-91c-5.141-10.349-20.29-44.958-13.162-76.431 8.24-36.38 45.344-65.967 46.92-67.21 3.276-2.581 7.857-3.077 11.61-1.256 3.755 1.82 6.201 5.727 6.2 9.9l-.018 225.377c.018 17.447-8.6 25.623-25.982 25.623s-26.001-8.18-26.001-25.003m30-104V38.028c-8.752 10.007-18.091 23.358-21.271 37.4-4.9 21.633 5.018 47.349 10.13 58.57z"/>
</symbol><symbol id="mitten" viewBox="0 0 264 264">
    <path d="M27.999 263c-5.991 0-11-5.009-11-11V91c0-50.468 37.776-90 86-90 45.514 0 77.141 15.9 82.267 89.524 15.767-9.835 36.554-12.545 50.511 1.698 14.783 14.777 15.223 35.278.655 54.885l-50.433 69.465V252c0 5.991-5.009 11-11 11zm141.57-61.245c49.868-68.685 55.444-74.5 55.631-81.755.163-6.327-2.936-12.443-8.983-14.982-11.894-4.995-26.15 8.47-33.441 15.761-6.774 6.773-18.778 1.8-18.778-7.779 0-83.544-25.282-90-61-90-35.888 0-64 29.869-64 68v110.755z"/>
</symbol><symbol id="plate" viewBox="0 0 264 264">
    <path d="M1 132C1 59.767 59.766 1 132 1s131 58.766 131 131-58.766 131-131 131S1 204.233 1 132m22 0c.067 59.342 49.658 108.933 109 109 59.342-.067 108.933-49.658 109-109-.067-59.342-49.658-108.933-109-109-59.342.067-108.933 49.658-109 109m32 0c.047-41.92 35.08-76.953 77-77 43.009 0 78 34.542 78 77-.048 42.465-35.535 77.952-78 78-42.458 0-77-34.991-77-78"/>
</symbol><symbol id="spoon" viewBox="0 0 264 264">
    <path d="M106.001 236V117C87.873 107.494 77 89.672 77 69c0-32.965 19.276-68 55-68s55 35.035 55 68c0 21.632-10.86 38.915-29 48l.986 118.445c.013 17.9-9.64 27.554-26.986 27.554-17.093.001-25.999-9.354-25.999-26.999m38.041-136.594c7.5-2.52 20.959-10.057 20.959-30.406 0-22.3-11.566-46-33-46s-33 23.7-33 46c0 20.774 15.671 28.282 22.451 30.555 7.538 1.777 15.08 1.795 22.59-.149"/>
</symbol></svg>