<?xml version="1.0" encoding="UTF-8"?><!DOCTYPE svg PUBLIC "-//W3C//DTD SVG 1.1//EN" "http://www.w3.org/Graphics/SVG/1.1/DTD/svg11.dtd"><svg xmlns="http://www.w3.org/2000/svg" xmlns:xlink="http://www.w3.org/1999/xlink"><defs/><symbol id="adjust" viewBox="0 0 264 264">
    <path d="M1 132C1 59.767 59.767 1 132 1s131 58.767 131 131-58.766 131-131 131S1 204.233 1 132m22 0c.067 59.342 49.658 108.933 109 109V23c-59.342.067-108.933 49.658-109 109"/>
</symbol><symbol id="aperture" viewBox="0 0 264 264">
    <path d="M1 132.999C1 58.98 58.76.999 132.5.999c73.179 0 130.5 57.98 130.5 132 0 74.113-56.1 130-130.5 130C57.531 263 1 207.112 1 132.999m209.036 77h-96.588l18.046 31c30.006 0 57.709-10.215 78.542-31m-105.964 27.618-48.247-82.866-18.854 32.656c14.083 24.874 37.894 43.033 67.098 50.21zm122.755-49.618a110.47 110.47 0 0 0 14.176-55 119.7 119.7 0 0 0-3.191-27.7l-47.75 82.705zm-203.825-55a114.3 114.3 0 0 0 3.539 28.473L74.157 79h-37.5A111.6 111.6 0 0 0 23 132.999zm185.947-21.715 18.816-32.59c-13.982-26.198-39.036-45.548-67.917-52.455zm-56.745-54.285-19.63-34h-.074c-31.787 0-60.009 12.95-79.837 34 39.898-.31 41.437-.319 99.537 0z"/>
</symbol><symbol id="backward" viewBox="0 0 264 264">
    <path d="m136.487 67.015-.08 53.986L246.44 57.473c7.205-4.163 16.512 1.217 16.5 9.538l-.193 130.709c-.012 8.136-9.27 13.669-16.485 9.518l-109.888-63.227-.08 53.709c-.012 8.299-9.293 13.657-16.486 9.518L6.517 142.056c-7.211-4.149-7.22-14.901-.014-19.061L119.99 57.473c7.407-3.752 16.509.979 16.497 9.542m-22.029 19.053-80.43 46.437 80.294 46.2z"/>
</symbol><symbol id="browser" viewBox="0 0 264 264">
    <path d="M30 247c-15.788-.018-28.982-13.212-29-29V46c.017-15.788 13.212-28.983 29-29h204c15.788.018 28.982 13.212 29 29v172c-.018 15.788-13.212 28.982-29 29zm-7-29c.004 3.811 3.189 6.996 7 7h204c3.811-.004 6.996-3.189 7-7V90H23zm0-172v22h218V46c-.004-3.81-3.189-6.996-7-7H30c-3.811.004-6.996 3.189-7 7m190.5 7.5c0-6.536 5.464-12 12-12s12 5.464 12 12-5.464 12-12 12-12-5.464-12-12"/>
</symbol><symbol id="camera" viewBox="0 0 264 264">
    <path d="M12 239c-5.991 0-11-5.009-11-11V69c0-5.991 5.009-11 11-11h46.824C72.04 30.349 88.175 26 96.999 26h72c14.722 0 27.216 10.756 37.2 32h46.8c5.991 0 11 5.009 11 11v159c0 5.991-5.009 11-11 11zm11-22h219V80h-43c-4.435.001-8.536-2.762-10.2-6.873C181.3 54.601 173.655 48 169 48H97c-5.141 0-13.306 6.6-20.8 25.127C74.536 77.238 70.435 80.001 66 80H23zm55-76c.034-29.943 25.057-54.966 55-55 29.943.034 54.966 25.057 55 55-.034 29.943-25.057 54.966-55 55-29.943-.034-54.966-25.057-55-55"/>
</symbol><symbol id="desktop" viewBox="0 0 264 264">
    <path d="M263 170c-.018 15.788-13.212 28.982-29 29h-72.393l7.286 34H192c5.991 0 11 5.009 11 11s-5.009 11-11 11H72c-5.991 0-11-5.009-11-11s5.009-11 11-11h23.107l7.286-34H30c-15.788-.018-28.982-13.212-29-29V38C1.018 22.212 14.212 9.018 30 9h204c15.788.018 28.982 13.212 29 29zm-29 7c3.811-.004 6.996-3.189 7-7V38c-.004-3.811-3.189-6.996-7-7H30c-3.81.004-6.996 3.19-7 7v132c.004 3.811 3.19 6.996 7 7zm-87.606 56-7.286-34h-14.214l-7.286 34z"/>
</symbol><symbol id="exposure" viewBox="0 0 264 264">
    <path d="M121.5 252v-40c0-5.991 5.009-11 11-11s11 5.009 11 11v40c0 5.991-5.009 11-11 11s-11-5.009-11-11m87.574-27.869-28.284-28.285c-4.236-4.236-4.236-11.32 0-15.556s11.32-4.236 15.556 0l28.284 28.285c4.236 4.236 4.236 11.32 0 15.556-4.229 4.24-11.327 4.24-15.556 0m-169.706 0c-4.236-4.236-4.236-11.32 0-15.556l28.284-28.284c4.236-4.236 11.32-4.236 15.556 0s4.236 11.32 0 15.556l-28.284 28.284c-4.23 4.24-11.327 4.24-15.556 0m93.088-146.218c29.436 0 54.043 24.608 54.043 54.044S161.892 185.999 132.457 186zM212 142.5c-5.991 0-11-5.009-11-11s5.009-11 11-11h40c5.991 0 11 5.009 11 11s-5.009 11-11 11zm-200 0c-5.991 0-11-5.009-11-11s5.009-11 11-11h40c5.991 0 11 5.009 11 11s-5.009 11-11 11zm168.791-59.79c-4.236-4.236-4.236-11.32 0-15.556l28.284-28.284c4.236-4.236 11.32-4.236 15.556 0s4.236 11.32 0 15.556L196.347 82.71c-4.229 4.24-11.328 4.241-15.556 0m-113.138 0L39.369 54.426c-4.236-4.236-4.236-11.32 0-15.556s11.32-4.236 15.556 0l28.284 28.284c4.236 4.237 4.236 11.32 0 15.556-4.229 4.24-11.327 4.24-15.556 0M121.5 52V12c0-5.991 5.009-11 11-11s11 5.009 11 11v40c0 5.991-5.009 11-11 11s-11-5.009-11-11"/>
</symbol><symbol id="film" viewBox="0 0 264 264">
    <path d="M12 255c-5.991 0-11-5.009-11-11V20C1 14.009 6.009 9 12 9h240c5.991 0 11 5.009 11 11v224c0 5.991-5.009 11-11 11zm229-22v-34h-26v34zm-218 0h26v-34H23zm218-56v-34h-26v34zm-192 0v-34H23v34zm192-56V87h-26v34zm-192 0V87H23v34zm192-56V31h-26v34zM49 65V31H23v34z"/>
</symbol><symbol id="flash-auto" viewBox="0 0 264 264">
    <path d="M79.271 262.35c-4.636-1.671-7.653-6.383-7.23-11.292l7.281-84.637-49.124-18.1c-6.657-2.453-9.277-10.804-5.215-16.62l88-126c2.818-4.035 8.145-5.72 12.771-4.041 4.627 1.68 7.633 6.39 7.206 11.293l-7.272 83.629 49.117 18.1c6.642 2.447 9.27 10.769 5.238 16.587l-88 127c-2.807 4.048-8.144 5.748-12.772 4.081M51.184 132.609l43.62 16.071c4.596 1.693 7.576 6.383 7.156 11.264l-4.457 51.814 56.365-81.345-43.67-16.09c-4.6-1.695-7.58-6.39-7.156-11.274l4.439-51.046zM219.83 244.19l-3.783-9.188h-28.091l-3.784 9.188c-2.282 5.539-8.819 8.263-14.359 5.982-5.481-2.257-8.262-8.825-5.983-14.36l28-68c3.661-8.891 16.68-8.892 20.341-.001l28 68c2.279 5.535-.502 12.103-5.983 14.36-5.478 2.262-12.081-.452-14.359-5.982zM206.986 213 202 200.891 197.014 213z"/>
</symbol><symbol id="flash-off" viewBox="0 0 264 264">
    <path d="M73.271 262.35c-4.636-1.671-7.653-6.383-7.23-11.292l7.281-84.637-49.124-18.1c-6.657-2.453-9.28-10.804-5.215-16.62l88-126c2.818-4.035 8.145-5.72 12.771-4.041 4.627 1.68 7.632 6.39 7.206 11.293l-7.272 83.629 49.116 18.1c6.642 2.447 9.27 10.769 5.238 16.587l-88 127c-2.808 4.048-8.143 5.747-12.771 4.081M45.184 132.609l43.619 16.071c4.597 1.693 7.576 6.383 7.157 11.264l-4.457 51.814 56.365-81.345-43.67-16.09c-4.6-1.695-7.58-6.39-7.156-11.274l4.439-51.046zM145 212c0-28.6 21.962-51 50-51 27.766.031 50.969 23.234 51 51-.032 27.765-23.235 50.968-51 51-28.038 0-50-22.4-50-51m50 29c15.788-.018 28.982-13.212 29-29a28.8 28.8 0 0 0-2.037-10.679l-37.855 37.48A27.7 27.7 0 0 0 195 241m-28-29a30.6 30.6 0 0 0 1.954 10.847l37.751-37.378A28.8 28.8 0 0 0 195 183c-15.7 0-28 12.74-28 29"/>
</symbol><symbol id="flash-on" viewBox="0 0 264 264">
    <path d="M108.573 262.071c-4.261-1.873-6.93-6.395-6.533-11.013l7.281-84.637L60.2 148.323c-6.66-2.452-9.282-10.804-5.218-16.622l88-126c2.818-4.036 8.146-5.722 12.772-4.042 4.627 1.68 7.632 6.391 7.205 11.295l-7.272 83.63 49.116 18.1a11 11 0 0 1 4.156 2.728c3.56 3.732 4.02 9.62 1.083 13.859l-88 127c-2.965 4.274-8.711 5.891-13.469 3.8m-27.39-129.462 43.62 16.07c4.597 1.693 7.577 6.384 7.157 11.265l-4.46 51.814 56.366-81.346-43.666-16.089c-4.601-1.695-7.581-6.391-7.156-11.275l4.436-51.047z"/>
</symbol><symbol id="forward" viewBox="0 0 264 264">
    <path d="m127.454 197.692.08-53.986L17.5 207.234c-7.204 4.163-16.512-1.217-16.5-9.538l.194-130.708c.012-8.3 9.293-13.657 16.486-9.518l109.888 63.227.08-53.71c.012-8.298 9.292-13.656 16.485-9.517l113.291 65.183c7.211 4.149 7.219 14.9.014 19.06l-113.487 65.521c-7.127 4.734-16.508-1.657-16.497-9.542m22.028-19.053 80.43-46.437-80.293-46.2z"/>
</symbol><symbol id="headphone" viewBox="0 0 264 264">
    <path d="M148.834 233.56c-4.907-3.437-6.136-10.412-2.7-15.319l45.886-65.533c3.437-4.908 10.413-6.137 15.32-2.7a50.7 50.7 0 0 1 18.448 23.777c13.867-33.552 6.256-71.169-22.834-100.26a101.115 101.115 0 0 0-142.835 0c-29.012 29.012-36.438 66.725-22.373 100.559a50.7 50.7 0 0 1 18.56-24.076c4.908-3.438 11.884-2.208 15.321 2.7l45.885 65.533c3.436 4.907 2.207 11.882-2.7 15.319-21.626 15.143-51.647 6.954-69.248-9.644-47.613-46.906-48.789-118.16-1-165.948a123.14 123.14 0 0 1 173.948 0c47.79 47.788 43.43 117.973 0 164.948-29.298 29.878-60.794 16.865-69.678 10.644"/>
</symbol><symbol id="headset" viewBox="0 0 264 264">
    <path d="M110.219 241.5c.013-11.433 9.567-20.988 21-21 7.864.006 15.241 4.559 18.771 11.587h40.611l4.816-13.34c-20.9 7.494-39.386-.653-45.863-5.187-4.907-3.437-6.137-10.413-2.7-15.32l45.886-65.532c3.437-4.907 10.413-6.137 15.32-2.7a50.7 50.7 0 0 1 18.448 23.777c13.866-33.551 6.256-71.17-22.834-100.26a101.113 101.113 0 0 0-142.835 0c-29.012 29.01-36.438 66.725-22.373 100.559a50.7 50.7 0 0 1 18.559-24.076c4.908-3.438 11.884-2.208 15.321 2.7l45.885 65.532c3.437 4.907 2.207 11.883-2.7 15.32-21.626 15.142-51.646 6.953-69.247-9.645-47.613-46.905-48.79-118.16-1-165.947a123.14 123.14 0 0 1 173.949 0c45.885 45.884 43.7 112.409 5.009 159.22l-14.676 48.843c-1.307 4.707-5.715 8.057-10.6 8.057h-50.944c-3.929 5.25-10.243 8.411-16.8 8.411-11.434-.011-20.99-9.565-21.003-20.999"/>
</symbol><symbol id="iso" viewBox="0 0 264 264">
    <path d="M48 223c-25.588-.029-46.971-21.412-47-47V88c.029-25.588 21.412-46.971 47-47h168c25.588.029 46.971 21.412 47 47v88c-.029 25.588-21.412 46.971-47 47zM23 88v88c.015 13.611 11.39 24.985 25 25h168c13.611-.015 24.985-11.389 25-25V88c-.015-13.61-11.389-24.985-25-25H48c-13.61.015-24.985 11.39-25 25m116 44c0-24.112 16.253-43 37-43 20.953 0 38 19.29 38 43s-17.047 43-38 43c-20.747 0-37-18.888-37-43m22 0c0 11.58 6.729 21 15 21 8.673 0 16-9.617 16-21s-7.327-21-16-21c-8.271 0-15 9.421-15 21m-71.778 23.222A11 11 0 0 1 97 152c2.864-.443 9-4.95 9.151-6.971-.047-.418-1.216-2.664-6.063-5.753-17.839-11.37-17.433-23.593-15.6-29.867 4.019-13.786 21.187-21.41 31.516-21.41 5.991 0 11 5.009 11 11s-5.009 11-11 11c-3.054 0-9.421 3.4-10.364 5.5a27.1 27.1 0 0 0 6.276 5.226c17.793 11.34 17.245 24.019 15.336 30.568-4.041 13.862-20.615 22.708-30.249 22.708-4.403.001-8.48-2.723-10.166-6.79-1.68-4.056-.73-8.875 2.385-11.989M48 163v-63c0-5.928 5.015-11 11-11 5.991 0 11 5.009 11 11v63c0 5.991-5.009 11-11 11-5.992 0-11-5.008-11-11"/>
</symbol><symbol id="laptop" viewBox="0 0 264 264">
    <path d="M252 223H12c-5.991 0-11-5.009-11-11s5.009-11 11-11h13V70c.018-15.788 13.212-28.982 29-29h156c15.788.018 28.982 13.212 29 29v131h13c5.991 0 11 5.009 11 11s-5.009 11-11 11m-35-30V70c-.004-3.81-3.189-6.996-7-7H54c-3.81.004-6.996 3.19-7 7v123z"/>
</symbol><symbol id="mobile-h" viewBox="0 0 264 264">
    <path d="M263 186c-.018 15.788-13.212 28.982-29 29H30c-15.788-.017-28.983-13.212-29-29V78c.017-15.788 13.212-28.983 29-29h204c15.788.018 28.982 13.212 29 29zm-233 7h204c3.811-.004 6.996-3.189 7-7V78c-.004-3.81-3.189-6.996-7-7H30c-3.81.004-6.996 3.19-7 7v108c.004 3.811 3.19 6.996 7 7m182-44c-9.259 0-17-7.741-17-17s7.741-17 17-17 17 7.741 17 17-7.741 17-17 17"/>
</symbol><symbol id="mobile-v" viewBox="0 0 264 264">
    <path d="M78 263c-15.788-.018-28.982-13.212-29-29V30c.018-15.788 13.212-28.982 29-29h108c15.788.018 28.982 13.212 29 29v204c-.018 15.788-13.212 28.982-29 29zM71 30v204c.004 3.811 3.19 6.996 7 7h108c3.811-.004 6.996-3.189 7-7V30c-.004-3.81-3.189-6.996-7-7H78c-3.811.004-6.996 3.189-7 7m44.5 182.5c0-9.259 7.741-17 17-17s17 7.74 17 17-7.74 17-17 17-17-7.741-17-17"/>
</symbol><symbol id="mobile-write" viewBox="0 0 264 264">
    <path d="M41 263c-15.788-.017-28.983-13.212-29-29V30c.017-15.788 13.212-28.983 29-29h108c15.669.018 28.811 13.018 29 28.686l-.009.315c-.264 5.796-5.188 10.5-10.99 10.5s-10.724-4.704-10.988-10.5H156c.008-3.791-3.208-7.01-7-7.001H41c-3.81.004-6.996 3.19-7 7v204c.005 3.811 3.19 6.995 7 7h108c3.811-.004 6.996-3.189 7-7v-34.292c0-5.991 5.009-11 11-11s11 5.009 11 11V234c-.017 15.788-13.212 28.983-29 29zm37.502-50.501c-.027-9.158 7.753-17.026 16.999-17 9.252-.025 17.024 7.748 16.998 17 .026 9.252-7.746 17.026-16.998 17.001-9.252.026-17.026-7.749-16.999-17.001m99.496-182.814v.006c0 .006.002-.003.002-.005z"/>
    <path d="m81.506 158.927 16.457-36.212a5.7 5.7 0 0 1 1.158-1.674l67.03-67.115c5.243-5.233 14-5.235 19.245-.004l8.68 8.678c5.232 5.242 5.232 13.994 0 19.237l-67.027 67.112a5.7 5.7 0 0 1-1.694 1.172l-36.296 16.378c-4.694 2.12-9.681-2.888-7.553-7.572m55.133 14.77c-5.211-2.957-7.095-9.784-4.139-14.995 2.946-5.192 9.738-7.085 14.945-4.167 6.055 2.965 7.555 4.965 14.314 2.577 7.3-3.052 12.806-11 16.364-23.629 1.507-5.349 6.971-8.798 12.448-7.858C204.805 128.074 214 162 232.928 148.657c4.897-3.452 11.03-4.943 15.526-.982 4.472 3.943 4.893 11.085.982 15.525-2.735 3.104-8.936 7.8-17.208 9.9C215 176 197.635 161.771 193.5 152.5c-5.768 12.706-12.728 20.58-23.485 25-7.757 3.187-24.015 1-33.376-3.803"/>
</symbol><symbol id="music-album" viewBox="0 0 264 264">
    <path d="M40 263.002c-15.788-.018-28.982-13.212-29-29v-204c.017-15.788 13.212-28.983 29-29h184c15.788.017 28.983 13.212 29 29v204c-.018 15.788-13.212 28.982-29 29zm-7-233v204c.004 3.811 3.189 6.996 7 7h184c3.811-.004 6.996-3.189 7-7v-204c-.004-3.811-3.189-6.996-7-7H40c-3.81.004-6.996 3.189-7 7m58.5 147.167c0-17.2 17.4-30.667 39.606-30.667a53 53 0 0 1 19.394 3.579V67.502c0-5.991 5.009-11 11-11s11 5.009 11 11v109.667c0 16.733-17.409 28.878-41.395 28.878-23.319-.002-39.605-11.877-39.605-28.88z"/>
</symbol><symbol id="music" viewBox="0 0 264 264">
    <path d="M9 229.002c0-19.065 20.645-34 47-34a61.5 61.5 0 0 1 25 5.054V52.002c0-4.938 3.424-9.38 8.2-10.638l152-40c6.864-1.806 13.8 3.54 13.8 10.638 0 49.934-.054 177.255-.156 177.859-1.944 17.676-21.82 31.141-46.844 31.141-26.355 0-47-14.935-47-34s20.645-34 47-34a61.5 61.5 0 0 1 25 5.054V76.271l-130 34.211v121.52c-.478 18.371-24.608 31-47 31-26.355 0-47-14.937-47-34m94-168.52v27.25l130-34.21v-27.25z"/>
</symbol><symbol id="pause" viewBox="0 0 264 264">
    <path d="M156 263c-5.991 0-11-5.009-11-11V12c0-5.991 5.009-11 11-11h56c5.991 0 11 5.009 11 11v240c0 5.991-5.009 11-11 11zm11-22h34V23h-34zM52 263c-5.991 0-11-5.009-11-11V12c0-5.991 5.009-11 11-11h56c5.991 0 11 5.009 11 11v240c0 5.991-5.009 11-11 11zm11-22h34V23H63z"/>
</symbol><symbol id="play" viewBox="0 0 264 264">
    <path d="m17 251.789.356-239.805c.012-8.324 9.433-13.575 16.485-9.519l207.856 119.6c7.211 4.149 7.219 14.9.014 19.06L33.5 261.336c-7.205 4.16-16.513-1.229-16.5-9.547m22.028-19.052 175.154-101.125L39.324 31.004z"/>
</symbol><symbol id="power" viewBox="0 0 264 264">
    <path d="M39.308 39.369c4.236-4.236 11.32-4.236 15.556 0s4.236 11.32 0 15.556A109.12 109.12 0 0 0 22.99 132c0 59.391 49.558 108.949 108.949 108.949S240.887 191.391 240.887 132a109.13 109.13 0 0 0-31.874-77.075c-4.236-4.236-4.236-11.32 0-15.556 4.237-4.236 11.32-4.236 15.556 0 65.147 65.145 41.093 179.09-42.494 213.657-31.836 13.166-68.438 13.166-100.274 0C-1.784 218.459-25.838 104.514 39.308 39.369m81.633 88.63v-116c0-5.991 5.009-11 11-11s11 5.009 11 11v116c0 5.991-5.009 11-11 11-5.991.001-11-5.007-11.001-10.999z"/>
</symbol><symbol id="random" viewBox="0 0 264 264">
    <path d="M212.527 227.496c-4.237-4.237-4.237-11.321 0-15.557l12.944-12.94H176a11.08 11.08 0 0 1-8.352-3.841l-23.018-26.855c-3.896-4.545-3.309-11.653 1.192-15.511 4.549-3.9 11.612-3.357 15.511 1.193l19.725 23.013h44.389l-13.024-13.02c-4.237-4.237-4.237-11.32 0-15.557 4.236-4.236 11.32-4.236 15.556 0l31.824 31.813c4.238 4.237 4.238 11.322 0 15.559L228.086 227.5c-4.231 4.239-11.331 4.238-15.559-.004M12 199.719c-5.991 0-11-5.009-11-11 0-5.992 5.009-11 11-11h62.941l92.707-108.16A11.08 11.08 0 0 1 176 65.72h49.474L212.53 52.78a11 11 0 0 1-2.385-3.569c-1.684-4.066-.716-8.888 2.385-11.988 4.192-4.192 11.325-4.233 15.557 0l31.717 31.707c4.192 4.19 4.231 11.326 0 15.559L227.98 116.3c-4.236 4.236-11.32 4.236-15.556 0-4.24-4.23-4.238-11.327.002-15.556l13.025-13.02h-44.388l-92.707 108.16a11.08 11.08 0 0 1-8.352 3.841zm83.5-88.73-20.562-23.99H12c-5.991 0-11-5.009-11-11 0-5.992 5.009-11 11-11h68c3.186 0 6.278 1.422 8.352 3.84l23.856 27.832c3.919 4.559 3.348 11.626-1.193 15.51-4.561 3.92-11.63 3.348-15.515-1.192"/>
</symbol><symbol id="signal-contactless" viewBox="0 0 264 264">
    <path d="M153.268 259.823c-4.261-4.211-4.303-11.295-.091-15.556 28.848-29.186 44.766-69.062 44.824-112.282.056-42.722-16.2-82.574-45.786-112.215-4.233-4.24-4.225-11.324.016-15.557 4.241-4.232 11.324-4.224 15.556.016 33.736 33.8 52.279 79.184 52.214 127.785-.064 49.037-18.239 94.4-51.176 127.718-4.19 4.25-11.282 4.327-15.557.091m-35.021-34.021c-4.25-4.223-4.272-11.306-.049-15.556 20.468-20.6 31.763-48.391 31.8-78.261.04-30.025-11.237-57.79-31.755-78.183-4.25-4.224-4.271-11.307-.047-15.557 4.224-4.249 11.307-4.27 15.556-.047 24.711 24.561 38.292 57.88 38.245 93.817-.047 35.708-13.613 69-38.2 93.738-4.201 4.238-11.287 4.297-15.55.049M83.195 191.75c-4.221-4.251-4.196-11.334.055-15.556 11.836-11.547 18.675-27.674 18.75-44.209.023-16.813-6.453-32.92-17.765-44.194-4.244-4.229-4.256-11.312-.027-15.556 4.23-4.244 11.313-4.257 15.557-.027 15.432 15.38 24.265 37.178 24.235 59.806-.066 22.349-9.276 44.16-25.249 59.791-4.265 4.246-11.357 4.186-15.556-.055m-33.419-24.455c-4.518-3.935-5.005-11.002-1.07-15.52 5.646-6.482 8.282-12.772 8.295-19.8.017-8.636-4.972-15.971-9.16-20.6-4.017-4.444-3.66-11.518.783-15.536s11.518-3.66 15.536.783c9.732 10.766 14.864 23.005 14.841 35.4-.024 12.454-4.507 23.643-13.705 34.2-3.92 4.509-10.99 5.026-15.52 1.073"/>
</symbol><symbol id="signal-stream" viewBox="0 0 264 264">
    <path d="M209.236 225.792c-4.244-4.229-4.257-11.312-.028-15.556 20.1-20.177 30.752-46.89 30.792-77.251.04-30.115-11.177-58.62-30.775-78.2-4.238-4.235-4.24-11.318-.005-15.556s11.318-4.24 15.556-.006c23.7 23.688 37.272 57.875 37.224 93.8-.047 35.778-13.261 68.717-37.208 92.75-4.224 4.249-11.322 4.258-15.556.019m-171.028-.028C14.262 201.731 1.048 168.792 1 133.014c-.047-35.921 13.521-70.108 37.225-93.8 4.238-4.235 11.321-4.232 15.556.006s4.233 11.32-.005 15.556c-19.6 19.584-30.815 48.089-30.776 78.2.04 30.361 10.69 57.073 30.792 77.251 4.229 4.244 4.216 11.327-.028 15.556-4.234 4.229-11.332 4.221-15.556-.019m136-34c-4.227-4.246-4.211-11.329.035-15.556 11.455-11.319 17.946-27.117 17.76-43.219.022-16.565-6.619-33.086-17.764-44.193-4.244-4.23-4.256-11.312-.027-15.556s11.312-4.256 15.556-.027c15.432 15.379 24.265 37.177 24.235 59.806-.029 22.7-8.411 43.025-24.239 58.781-4.239 4.233-11.337 4.214-15.555-.04zM72.16 190.715c-15.119-15.378-23.126-35.329-23.157-57.7-.03-23.26 8.44-45.06 23.235-59.806 4.244-4.23 11.327-4.217 15.556.027 4.23 4.243 4.218 11.326-.026 15.556-10.678 10.64-16.789 26.749-16.766 44.193.022 16.725 5.69 30.958 16.844 42.3 4.2 4.272 4.14 11.354-.132 15.555-4.284 4.224-11.377 4.131-15.557-.129zm35.843-57.711c0-13.072 10.928-24 24-24s24 10.928 24 24-10.928 24-24 24c-13.075.001-24.005-10.929-24.003-24.003z"/>
</symbol><symbol id="signal-wifi" viewBox="0 0 264 264">
    <path d="M107.5 209.5c-.115-13.118 10.882-24.115 24-24 13.42 0 25 10.581 25 24s-11.58 25-25 25-24-11.583-24-25m68.316-42.953c-11.61-11.608-27.704-18.2-44.121-18.072-16.866-.022-32.4 6.233-43.743 17.613-4.23 4.244-11.312 4.256-15.556.027-4.245-4.229-4.257-11.313-.027-15.557 15.508-15.561 36.587-24.114 59.354-24.083 22.23-.137 44.007 8.825 59.7 24.57 4.247 4.265 4.186 11.357-.055 15.556-4.265 4.245-11.353 4.185-15.552-.054m-138.1-34.846c-4.25-4.224-4.271-11.307-.047-15.557 24.555-24.7 57.946-38.283 94.021-38.235 35.735.047 68.992 13.565 93.646 38.064 4.239 4.202 4.296 11.291.046 15.553-4.223 4.251-11.307 4.273-15.557.049-20.511-20.384-48.271-31.63-78.167-31.67-30.163-.04-58 11.235-78.388 31.745-4.202 4.236-11.291 4.296-15.556.051zm-33.5-34.314c-4.233-4.24-4.225-11.324.016-15.557C37.786 48.342 83.242 29.93 132.225 30c48.611.065 93.875 18.378 127.453 51.567 4.251 4.19 4.328 11.28.091 15.556-4.212 4.262-11.296 4.303-15.557.09-29.44-29.1-69.222-45.157-112.018-45.213-43.1-.057-83.029 16.066-112.422 45.4-4.233 4.235-11.332 4.231-15.558-.013z"/>
</symbol><symbol id="soundwave" viewBox="0 0 264 264">
    <path d="M121 252V12c0-5.991 5.009-11 11-11s11 5.009 11 11v240c0 5.991-5.009 11-11 11s-11-5.009-11-11m80-48V60c0-5.991 5.009-11 11-11s11 5.009 11 11v144c0 5.991-5.009 11-11 11s-11-5.009-11-11M81 192V72c0-5.991 5.009-11 11-11s11 5.009 11 11v120c0 5.991-5.009 11-11 11s-11-5.009-11-11m-40-28v-64c0-5.991 5.009-11 11-11s11 5.009 11 11v64c0 5.991-5.009 11-11 11s-11-5.009-11-11m120-2v-60c0-5.991 5.009-11 11-11s11 5.009 11 11v60c0 5.991-5.009 11-11 11s-11-5.009-11-11m80-20v-20c0-5.991 5.009-11 11-11s11 5.009 11 11v20c0 5.991-5.009 11-11 11s-11-5.009-11-11M1 142v-20c0-5.991 5.009-11 11-11s11 5.009 11 11v20c0 5.991-5.009 11-11 11s-11-5.009-11-11"/>
</symbol><symbol id="speaker" viewBox="0 0 264 264">
    <path d="M52 263c-5.991 0-11-5.009-11-11V12c0-5.991 5.009-11 11-11h160c5.991 0 11 5.009 11 11v240c0 5.991-5.009 11-11 11zm11-22h138V23H63zm16-78c.033-28.854 24.146-52.967 53-53 28.854.033 52.967 24.146 53 53-.033 28.854-24.146 52.967-53 53-28.855-.032-52.968-24.145-53-53m30.5-92.5c0-12.255 10.245-22.5 22.5-22.5s22.5 10.245 22.5 22.5c0 12.237-10.382 22.5-22.5 22.5-12.255 0-22.5-10.245-22.5-22.5"/>
</symbol><symbol id="stop" viewBox="0 0 264 264">
    <path d="M12 1h240c5.991 0 11 5.009 11 11v240c0 5.991-5.009 11-11 11H12c-5.991 0-11-5.009-11-11V12C1 6.009 6.009 1 12 1m229 22H23v218h218z"/>
</symbol><symbol id="tablet-h" viewBox="0 0 264 264">
    <path d="M263 210c-.018 15.788-13.212 28.982-29 29H30c-15.788-.018-28.982-13.212-29-29V54c.018-15.788 13.212-28.982 29-29h204c15.788.017 28.983 13.212 29 29zm-233 7h204c3.811-.004 6.996-3.189 7-7V54c-.004-3.81-3.189-6.996-7-7H30c-3.81.004-6.996 3.19-7 7v156c.004 3.811 3.19 6.996 7 7m182-68c-9.259 0-17-7.741-17-17s7.741-17 17-17 17 7.741 17 17-7.741 17-17 17"/>
</symbol><symbol id="tablet-v" viewBox="0 0 264 264">
    <path d="M54.5 263c-15.788-.018-28.982-13.212-29-29V30c.018-15.788 13.212-28.982 29-29h156c15.788.018 28.982 13.212 29 29v204c-.018 15.788-13.212 28.982-29 29zm-7-233v204c.004 3.811 3.189 6.996 7 7h156c3.811-.004 6.996-3.189 7-7V30c-.004-3.811-3.189-6.996-7-7h-156c-3.811.004-6.996 3.189-7 7M115 211.5c0-9.259 7.741-17 17-17s17 7.741 17 17-7.741 17-17 17-17-7.741-17-17"/>
</symbol><symbol id="tv" viewBox="0 0 264 264">
    <path d="M263 170c-.018 15.788-13.212 28.982-29 29h-91v34h49.5c5.991 0 11 5.009 11 11s-5.009 11-11 11h-120c-5.991 0-11-5.009-11-11s5.009-11 11-11H121v-34H30c-15.788-.018-28.982-13.212-29-29V38C1.018 22.212 14.212 9.018 30 9h204c15.788.018 28.982 13.212 29 29zm-233 7h204c3.811-.004 6.996-3.189 7-7V38a7.005 7.005 0 0 0-7-7H30c-3.81.004-6.996 3.19-7 7v132c.004 3.811 3.19 6.996 7 7"/>
</symbol><symbol id="usb-drive" viewBox="0 0 264 264">
    <path d="M121 252v-21H96c-25.588-.029-46.97-21.412-47-47V68c0-5.991 5.009-11 11-11h13V12c0-5.991 5.009-11 11-11h96c5.991 0 11 5.009 11 11v45h13c5.991 0 11 5.009 11 11v116c-.029 25.588-21.412 46.971-47 47h-25v21c0 5.991-5.009 11-11 11s-11-5.009-11-11m48-195V23h-26v34zm-48 0V23H95v34z"/>
</symbol><symbol id="video" viewBox="0 0 264 264">
    <path d="M36 231c-19.055-.022-34.978-15.945-35-35V68c.022-19.055 15.945-34.978 35-35h120c19.055.022 34.978 15.945 35 35v27.92l57.012-22.172C255.078 70.563 263.001 76.756 263 84v96c0 7.607-7.899 13.01-14.989 10.252L191 168.08V196c-.022 19.055-15.945 34.978-35 35zM23 68v128c.008 7.077 5.923 12.992 13 13h120c7.077-.008 12.992-5.923 13-13V68c-.008-7.077-5.923-12.992-13-13H36c-7.077.008-12.992 5.923-13 13"/>
</symbol><symbol id="volume-off" viewBox="0 0 264 264">
    <path d="M132.435 259.986 59.617 191H36c-18.972 0-35-16.486-35-36v-47c0-19.514 16.028-36 35-36h23.616l72.818-68.985c3.157-2.99 7.917-3.837 11.912-2.119 3.993 1.718 6.651 5.753 6.653 10.1v241c.001 4.349-2.658 8.387-6.653 10.106-3.984 1.714-8.751.875-11.911-2.116m-60.87-87.971 57.436 54.412V36.574L71.565 90.985zm172.046-.847-24.1-24.1-24.1 24.1c-4.236 4.236-11.32 4.236-15.556 0s-4.236-11.319 0-15.556l24.1-24.1-24.1-24.1c-4.236-4.236-4.236-11.32 0-15.556s11.32-4.236 15.556 0l24.1 24.1 24.1-24.1c4.236-4.236 11.32-4.236 15.556 0 4.236 4.237 4.236 11.32 0 15.556l-24.1 24.1 24.1 24.1c4.236 4.237 4.236 11.32 0 15.556-4.185 4.196-11.329 4.237-15.555 0z"/>
</symbol><symbol id="volume-on" viewBox="0 0 264 264">
    <path d="M132.435 259.986 59.617 191H36c-18.972 0-35-16.486-35-36v-47c0-19.513 16.028-36 35-36h23.617l72.818-68.986c3.157-2.99 7.917-3.837 11.912-2.119 3.995 1.719 6.654 5.756 6.654 10.105v241c0 4.349-2.659 8.387-6.654 10.105-3.985 1.715-8.753.873-11.912-2.119m-60.87-87.971L129 226.427V36.573L71.566 90.985zM209.246 224.8c-4.25-4.223-4.272-11.306-.049-15.556 19.823-19.948 30.763-47.742 30.8-78.261.04-30.024-11.238-57.79-31.755-78.184-4.249-4.224-4.271-11.306-.047-15.556 4.224-4.249 11.307-4.27 15.556-.047 24.71 24.561 38.293 57.88 38.245 93.816-.048 36.359-13.258 69.649-37.2 93.74-4.2 4.238-11.286 4.297-15.55.051zm-35.052-34.05c-4.22-4.251-4.195-11.334.056-15.555 11.424-11.343 17.728-27.043 17.751-44.209.201-16.099-6.296-31.895-17.765-43.194-4.244-4.229-4.256-11.312-.027-15.556s11.312-4.256 15.556-.027c15.528 15.449 24.37 36.905 24.235 58.808-.031 23.062-8.643 44.3-24.25 59.792-4.266 4.247-11.358 4.184-15.556-.059"/>
</symbol><symbol id="watch-fitness" viewBox="0 0 264 264">
    <path d="M92.5 263.5c-5.991 0-11-5.009-11-11s5.009-11 11-11h80c5.992 0 11 5.008 11 11s-5.008 11-11 11zm3-36c-31.576-.036-57.964-26.424-58-58v-74c.036-31.576 26.424-57.964 58-58h74c31.576.036 57.964 26.424 58 58v74c-.036 31.576-26.424 57.964-58 58zm-36-132v74c.022 19.599 16.4 35.978 36 36h74c19.599-.022 35.978-16.401 36-36v-74c-.022-19.6-16.401-35.978-36-36h-74c-19.6.022-35.978 16.4-36 36m70.594 81.181C128.416 175.639 89 150.825 89 123.065c0-17.112 11.331-26.064 22.525-26.064 6.672 0 14.9 3.392 20.477 12.393 5.562-8.968 13.773-12.346 20.432-12.347 13.975.005 22.566 12.926 22.566 26.018 0 27.615-39.408 52.563-41.086 53.611a3.64 3.64 0 0 1-3.82.005M92.5 22.5c-5.991 0-11-5.009-11-11s5.009-11 11-11h80c5.992 0 11 5.008 11 11 0 5.991-5.008 11-11 11z"/>
</symbol><symbol id="watch" viewBox="0 0 264 264">
    <path d="M92.5 263.5c-5.991 0-11-5.009-11-11s5.009-11 11-11h80c5.992 0 11 5.008 11 11s-5.008 11-11 11zm3-36c-31.576-.036-57.964-26.424-58-58v-74c.036-31.576 26.424-57.964 58-58h74c31.576.036 57.964 26.424 58 58v74c-.036 31.576-26.424 57.964-58 58zm-3-205c-5.991 0-11-5.009-11-11s5.009-11 11-11h80c5.992 0 11 5.008 11 11 0 5.928-5.015 11-11 11z"/>
</symbol></svg>