<?xml version="1.0" encoding="UTF-8"?><!DOCTYPE svg PUBLIC "-//W3C//DTD SVG 1.1//EN" "http://www.w3.org/Graphics/SVG/1.1/DTD/svg11.dtd"><svg xmlns="http://www.w3.org/2000/svg" xmlns:xlink="http://www.w3.org/1999/xlink"><defs/><symbol id="balcony" viewBox="0 0 264 264">
    <path d="M12 263c-5.991 0-11-5.009-11-11 0-6.075 4.925-11 12-11v-78c-7.076 0-12-4.925-12-11 0-5.991 5.009-11 11-11h73V48c.029-25.588 21.412-46.971 47-47 25.588.029 46.971 21.412 47 47v93h73c5.991 0 11 5.009 11 11 0 6.075-4.925 11-12 11v78c7.075 0 12 4.925 12 11 0 5.991-5.009 11-11 11zm217-22v-78h-50v78zm-72 0v-78h-50v78zm-72 0v-78H35v78z"/>
</symbol><symbol id="bath" viewBox="0 0 264 264">
    <path d="M181 252.1v-5H83v5c0 5.992-5.008 11-11 11-5.991 0-11-5.009-11-11v-6.09c-30.36-6.213-44-37.3-44-49.91v-29h-5c-5.991 0-11-5.009-11-11s5.009-11 11-11h5v-103C16.858 22.805 30.847 5.638 49.773 1.88c17.38-3.578 33.8 3.943 43.849 19.446 18.261-2.038 39.143 9.644 44.023 12.562 6.778 4.053 7.065 14.116.528 18.548L84.655 88.73c-6.375 4.323-15.386.667-16.946-6.876-1.254-6.064-6.152-34.079 6.433-50.042-5.082-6.89-12.184-9.974-19.934-8.379C45.383 25.105 38.854 33.12 39 42.1v103h213c5.991 0 11 5.009 11 11s-5.009 11-11 11h-5v29c0 13.053-13.233 43.875-44 49.95v6.05c0 5.991-5.009 11-11 11s-11-5.009-11-11"/>
</symbol><symbol id="bed" viewBox="0 0 264 264">
    <path d="M241 224v-29H23v29c0 5.991-5.009 11-11 11s-11-5.009-11-11V40a11 11 0 0 1 .837-4.21C3.517 31.736 7.596 29 12 29c5.991 0 11 5.009 11 11v58.771a46.56 46.56 0 0 1 24.869-6.77c15.367 0 28.113 6.5 36.557 16.688C93.08 98.792 105.853 92.996 119 93h68c41.907 0 76 33.645 76 75v56c0 5.991-5.009 11-11 11s-11-5.009-11-11M73.001 173v-35c0-13.233-12.863-24-25.363-24S23 124.767 23 138v35z"/>
</symbol><symbol id="building" viewBox="0 0 264 264">
    <path d="M44 263c-5.991 0-11-5.009-11-11V12c0-5.991 5.009-11 11-11h176c5.991 0 11 5.009 11 11v240c0 5.991-5.009 11-11 11zm165-22V23H55v218h47v-45c0-5.447 4.553-10 10-10h40c5.447 0 10 4.553 10 10v45zm-53-75c-5.447 0-10-4.553-10-10v-24c0-5.447 4.553-10 10-10h16c5.447 0 10 4.553 10 10v24c0 5.447-4.553 10-10 10zm-64 0c-5.447 0-10-4.553-10-10v-24c0-5.447 4.553-10 10-10h16c5.447 0 10 4.553 10 10v24c0 5.447-4.553 10-10 10zm64-72c-5.447 0-10-4.553-10-10V60c0-5.447 4.553-10 10-10h16c5.447 0 10 4.553 10 10v24c0 5.447-4.553 10-10 10zm-64 0c-5.447 0-10-4.553-10-10V60c0-5.447 4.553-10 10-10h16c5.447 0 10 4.553 10 10v24c0 5.447-4.553 10-10 10z"/>
</symbol><symbol id="buildings" viewBox="0 0 264 264">
    <path d="M12 263c-5.991 0-11-5.009-11-11V12C1 6.009 6.009 1 12 1h176c5.991 0 11 5.009 11 11v61h53c5.991 0 11 5.009 11 11v168c0 5.991-5.009 11-11 11zm229-22V95h-53c-5.991 0-11-5.009-11-11V23H23v218h80v-45c0-5.447 4.553-10 10-10h40c5.447 0 10 4.553 10 10v45zm-52-75c-5.447 0-10-4.553-10-10v-24c0-5.447 4.553-10 10-10h16c5.447 0 10 4.553 10 10v24c0 5.447-4.553 10-10 10zm-64 0c-5.447 0-10-4.553-10-10v-24c0-5.447 4.553-10 10-10h16c5.447 0 10 4.553 10 10v24c0 5.447-4.553 10-10 10zm-64 0c-5.447 0-10-4.553-10-10v-24c0-5.447 4.553-10 10-10h16c5.447 0 10 4.553 10 10v24c0 5.447-4.553 10-10 10zm64-72c-5.447 0-10-4.553-10-10V60c0-5.447 4.553-10 10-10h16c5.447 0 10 4.553 10 10v24c0 5.447-4.553 10-10 10zm-64 0c-5.447 0-10-4.553-10-10V60c0-5.447 4.553-10 10-10h16c5.447 0 10 4.553 10 10v24c0 5.447-4.553 10-10 10z"/>
</symbol><symbol id="floor-plan" viewBox="0 0 264 264">
    <path d="M12 263c-5.991 0-11-5.009-11-11V12C1 6.009 6.009 1 12 1h120c5.991 0 11 5.009 11 11s-5.009 11-11 11H23v218h90v-90H76c-5.991 0-11-5.009-11-11s5.009-11 11-11h64c5.991 0 11 5.009 11 11s-5.009 11-11 11h-5v90h106v-90h-37c-5.991 0-11-5.009-11-11s5.009-11 11-11h37V23h-29c-5.991 0-11-5.009-11-11s5.009-11 11-11h40c5.991 0 11 5.009 11 11v240c0 5.991-5.009 11-11 11z"/>
</symbol><symbol id="garage" viewBox="0 0 264 264">
    <path d="M12.5 263c-5.991 0-11-5.008-11-11V101A11.08 11.08 0 0 1 6 92.13l120-88c3.855-2.83 9.259-2.805 13.088.06l119 89A11.08 11.08 0 0 1 262.5 102v150c0 5.992-5.009 11-11 11zm228-22V107.51L132.436 26.69 23.5 106.573V241h26V138c0-5.991 5.009-11 11-11h144c5.991 0 11 5.009 11 11v103z"/>
</symbol><symbol id="house-alt-360" viewBox="0 0 264 264">
    <path d="M13 263c-5.991 0-11-5.009-11-11V101a11.08 11.08 0 0 1 4.5-8.87l120-88c3.855-2.83 9.258-2.805 13.088.06l119 89A11.08 11.08 0 0 1 263 102v150c0 5.991-5.009 11-11 11zm11-156.426V241h217V107.51L132.936 26.688zM82.065 208.44c-2.282-4.339-.561-9.874 3.778-12.155l4.225-2.222c-20.918-9.147-33.589-24.494-33.589-42.08 0-28.356 33.394-50.568 76.023-50.568s76.023 22.212 76.023 50.568c0 22.665-22.379 42.64-54.423 48.576-4.805.899-9.597-2.392-10.488-7.21-.892-4.815 2.441-9.606 7.21-10.489 23-4.261 39.7-17.248 39.7-30.877 0-17.655-26.572-32.568-58.023-32.568s-58.023 14.914-58.023 32.568c0 9.535 8.26 18.7 21.442 24.9l-2.656-5.024c-2.292-4.334-.586-9.872 3.748-12.164s9.872-.584 12.163 3.75l12.711 24.034c2.269 4.294.573 9.89-3.768 12.173l-23.9 12.567c-4.339 2.291-9.876.562-12.153-3.779"/>
</symbol><symbol id="house-alt-book-open" viewBox="0 0 264 264">
    <path d="M13 263c-5.991 0-11-5.009-11-11V101a11.08 11.08 0 0 1 4.5-8.87l120-88c3.855-2.83 9.258-2.805 13.088.06l119 89A11.08 11.08 0 0 1 263 102v150c0 5.991-5.009 11-11 11zm11-156.426V241h217V107.51L132.936 26.688zM128.774 216.35c-14.54-6.078-29.607-11.591-45.566-11.353-6.03.252-11.196-4.567-11.208-10.584v-87.838c.018-5.499 4.407-10.191 9.892-10.578 17.698-.534 34.709 4.734 50.849 11.574 15.984-6.92 33.305-12.458 50.921-11.574 5.5.367 9.909 5.067 9.923 10.579v87.838c-.011 5.752-4.799 10.611-10.605 10.602-16.079-.374-31.328 4.862-45.904 11.225-2.66 1.209-5.601 1.167-8.302.109"/>
</symbol><symbol id="house-alt-lira" viewBox="0 0 264 264">
    <path d="M13 263c-5.991 0-11-5.009-11-11V101a11.08 11.08 0 0 1 4.5-8.87l120-88c3.855-2.83 9.258-2.805 13.088.06l119 89A11.08 11.08 0 0 1 263 102v150c0 5.991-5.009 11-11 11zm11-156.426V241h217V107.51L132.936 26.688zm92.354 87.542v-18.93a9.8 9.8 0 0 1-4.172 1.115c-3.729 0-7.232-2.714-8.6-7.1-1.766-5.638.655-11.906 5.407-14l7.369-3.247v-2.505a9.8 9.8 0 0 1-4.172 1.114c-3.729 0-7.232-2.713-8.6-7.1-1.766-5.637.655-11.905 5.407-14l7.369-3.247v-8.323c0-6.015 4.108-10.889 9.178-10.889s9.178 5.188 9.178 11.2l3.479-1.613c4.751-2.094 10.033.778 11.8 6.416s-.655 11.905-5.408 14l-9.869 4.349v2.507l3.479-1.534c4.751-2.094 10.033.78 11.8 6.416s-.655 11.906-5.408 14l-9.869 4.349v14.316c5.398-2.871 9.197-8.228 11.054-13.969 1.9-5.575 7.253-8.265 11.952-6.009s6.965 8.6 5.064 14.18c-5.021 15.287-18.405 29.506-35.443 29.506-6.849 0-10.995-4.443-10.995-11.002"/>
</symbol><symbol id="house-alt" viewBox="0 0 264 264">
    <path d="M13 263c-5.991 0-11-5.008-11-11V101a11.08 11.08 0 0 1 4.5-8.87l120-88c3.855-2.83 9.259-2.805 13.088.06l119 89A11.08 11.08 0 0 1 263 102v150c0 5.992-5.009 11-11 11zm228-22V107.51L132.936 26.69 24 106.573V241z"/>
</symbol><symbol id="house-check" viewBox="0 0 264 264">
    <path d="M36.876 254c-5.991 0-11-5.008-11-11V122.086c-6.159 5.101-14.779 11.345-21.347 3.399-3.82-4.614-3.157-11.663 1.455-15.485L124.86 11.531c3.999-3.312 9.952-3.333 13.974-.049l38.543 31.476V32.5c0-5.991 5.009-11 11-11h40c5.97 0 11 4.978 11 11v61.09l19.459 15.89c4.641 3.789 5.353 10.836 1.564 15.477s-10.836 5.352-15.477 1.563l-5.542-4.526V243c0 5.992-5.009 11-11 11zm11-22h169.5V104.027l-85.45-69.784-84.049 69.621zm67.224-33.222-24-24c-4.236-4.236-4.236-11.319 0-15.556 4.232-4.233 11.365-4.192 15.557 0L122.437 175l35.246-39.344c3.998-4.462 11.07-4.85 15.532-.853 4.463 3.998 4.852 11.07.854 15.533l-43 48c-3.999 4.464-11.58 4.838-15.969.442"/>
</symbol><symbol id="house-floor" viewBox="0 0 264 264">
    <path d="M36 254c-5.991 0-11-5.009-11-11V122.494c-6.166 5.129-14.83 11.52-21.456 3.541-3.792-4.557-3.18-11.664 1.421-15.492 23.8-19.848 119-99 119-99 3.998-3.326 9.965-3.354 13.993-.064L176.5 42.955V32.5c0-5.991 5.009-11 11-11h40c5.991 0 11 5.009 11 11v61.09l19.458 15.891c4.64 3.79 5.351 10.837 1.562 15.477-3.79 4.641-10.837 5.353-15.478 1.563l-5.541-4.525V243c0 5.991-5.009 11-11 11zm11-22h169.5v-65H47zm169.5-87v-40.973l-85.435-69.772L47 104.192V145z"/>
</symbol><symbol id="house-heat" viewBox="0 0 264 264">
    <path d="M36.876 254c-5.991 0-11-5.009-11-11V122.086c-6.16 5.101-14.779 11.345-21.347 3.399-3.82-4.613-3.158-11.663 1.454-15.485l118.876-98.469c3.999-3.312 9.953-3.333 13.975-.049l38.542 31.476V32.5c0-5.991 5.009-11 11-11h40c5.97 0 11.001 4.978 11.001 11v61.09l19.458 15.891c4.64 3.79 5.351 10.837 1.562 15.477s-10.836 5.352-15.477 1.563l-5.542-4.526V243c0 5.991-5.009 11-11 11zm11-22h169.5V104.028l-85.451-69.785-84.05 69.621zm119.911-23.968c-7.337-9.951-11.797-23.252-10.035-35.647 1.725-12.109 14.484-17.755 15.999-28.427 1.319-9.312-5.962-19.929-6.036-20.031-3.501-4.862-2.362-11.853 2.5-15.354s11.853-2.362 15.354 2.5c1.288 1.789 12.511 18 9.964 35.971-1.507 10.626-7.012 16.284-11.032 20.414-7.848 8.063-5.301 18.806 1.03 27.563 3.497 4.845 2.397 11.815-2.422 15.347-4.821 3.531-11.791 2.468-15.323-2.336zm-44 0c-7.341-9.947-11.797-23.254-10.036-35.647 1.725-12.109 14.484-17.755 15.999-28.427 1.319-9.312-5.963-19.929-6.036-20.031-3.501-4.862-2.362-11.853 2.5-15.354s11.853-2.362 15.354 2.5c1.289 1.789 12.511 18 9.964 35.971-1.506 10.626-7.012 16.284-11.032 20.414-7.847 8.062-5.301 18.808 1.031 27.563 3.497 4.845 2.397 11.815-2.422 15.347-4.821 3.531-11.791 2.468-15.322-2.336m-44.265 0c-7.339-9.953-11.794-23.25-10.036-35.647 1.724-12.109 14.484-17.755 15.999-28.427 1.319-9.312-5.963-19.929-6.036-20.031-3.5-4.862-2.362-11.853 2.5-15.354s11.853-2.362 15.354 2.5c1.288 1.789 12.511 18 9.963 35.971-1.506 10.626-7.012 16.284-11.032 20.414-7.847 8.064-5.3 18.806 1.031 27.563 3.498 4.845 2.398 11.815-2.422 15.347s-11.79 2.468-15.321-2.336"/>
</symbol><symbol id="house-surface" viewBox="0 0 264 264">
    <path d="M36.876 254c-5.991 0-11-5.009-11-11V122.087c-6.012 4.979-14.958 11.125-21.346 3.398-3.822-4.614-3.16-11.666 1.454-15.488l118.876-98.47c3.999-3.311 9.952-3.332 13.974-.048l38.542 31.476V32.5c0-5.992 5.009-11 11-11h40c5.991 0 11 5.009 11 11v61.089l19.459 15.891c4.64 3.789 5.351 10.836 1.562 15.477-3.789 4.64-10.836 5.352-15.477 1.563l-5.542-4.526V243c0 5.991-5.009 11-11 11zm11-22h169.5V104.027l-85.451-69.784-84.049 69.621zm108.72-30.869c-3.3-3.293-4.337-8.624-1.592-12.582a43 43 0 0 1 6.809-8.185h-58.936l5.213 5.211c4.236 4.236 4.236 11.319 0 15.556s-11.32 4.236-15.556 0l-23.936-23.927c-4.504-4.502-3.994-12.343.721-16.281l23.214-23.207c4.236-4.237 11.32-4.237 15.556 0 4.236 4.236 4.236 11.319 0 15.556l-5.087 5.085h58.684l-5.087-5.085c-4.236-4.237-4.236-11.32 0-15.556 4.237-4.237 11.32-4.237 15.556 0l22.944 22.936c5.205 4.01 5.677 11.948.998 16.544l-.006.006-23.936 23.927c-4.229 4.237-11.325 4.239-15.555.002z"/>
</symbol><symbol id="house" viewBox="0 0 264 264">
    <path d="M36.876 254c-5.991 0-11-5.009-11-11V122.086c-6.16 5.101-14.779 11.345-21.347 3.399-3.82-4.613-3.158-11.663 1.454-15.485l118.876-98.469c3.999-3.312 9.953-3.333 13.975-.049l38.542 31.476V32.5c0-5.991 5.009-11 11-11h40c5.991 0 11 5.009 11 11v61.09l19.458 15.891c4.64 3.79 5.351 10.837 1.562 15.477-3.79 4.641-10.837 5.353-15.478 1.563l-5.542-4.526V243c0 5.991-5.009 11-11 11zm11-22h169.5V104.028l-85.451-69.785-84.05 69.621z"/>
</symbol><symbol id="wc" viewBox="0 0 264 264">
    <path d="M83 263c-7.06 0-11-5-11-12l.111-52c-23.255.175-43.228-19.513-43.111-43v-29c-7.075 0-12-4.925-12-11V12c0-5.991 5.009-11 11-11h47.933c5.991 0 11 5.009 11 11v93H221c14.093 0 26 11.449 26 25-.043 37.565-31.435 68.957-69 69h-22.111l.111 52c0 7-3.94 12-11 12zM51 156c0 11.579 8.972 21 20 21h107c25.588-.029 46.971-21.412 47-47 0-1.283-1.977-3-4-3H51z"/>
</symbol></svg>