<?xml version="1.0" encoding="UTF-8"?><!DOCTYPE svg PUBLIC "-//W3C//DTD SVG 1.1//EN" "http://www.w3.org/Graphics/SVG/1.1/DTD/svg11.dtd"><svg xmlns="http://www.w3.org/2000/svg" xmlns:xlink="http://www.w3.org/1999/xlink"><defs/><symbol id="behance" viewBox="0 0 264 264">
    <path d="M144 152c0-31.963 23.328-56 56-56 36.706 0 54.119 27.13 52 60h-78c.8 18.545 10.56 30 27 30 11.889 0 22.078-9.356 24-16h26c-8.266 25.21-26.608 38-51 38-33.967 0-56-22.937-56-56m30-16h48c-2.721-14.814-8.577-18-23-18-18.751 0-24.6 9.841-25 18M12 205V57h70c28.315 0 48 10.483 48 38 0 14.42-8.1 23.755-21 30 18.134 5.146 28 19.661 28 38 0 29.951-26.186 42-53 42zm30-24h38c12.994 0 23-3.685 23-19 0-15.021-8.984-21-23-21H42zm0-65h36c11.4 0 20-4.606 20-17 0-14.119-11.308-17-23-17H42zm129-29V71h56v16z"/>
</symbol><symbol id="dribbble" viewBox="0 0 264 264">
    <path d="M191 218c-4.23-24.794-11.661-49.08-20-71 18-2.258 38.916-1.439 63 3-4.586 27.327-20.277 52.142-43 68m-121-4c17.4-26.241 41.6-52.093 81-63 9.264 23.661 16.965 49.827 21 77-45.76 18.3-84.691-.721-102-14m-41-85c37.883-.028 74.293-2.428 107-12 2.376 4.94 4.762 9.751 7 15-43.011 12.668-69.687 41.042-88 68a102.13 102.13 0 0 1-26-71m59-90c10.5 14 24.319 35.1 38 60-29.024 7.931-61.273 9.9-94 10 7.185-30.298 28.018-56.339 56-70m111 15c-14.51 17.7-32.295 29.76-53 38a535 535 0 0 0-38-60c31.834-7.458 66.089.823 91 22m15 15a103.6 103.6 0 0 1 22 61c-27.786-4.834-52.409-5.3-73-2-2.662-5.971-5.22-12.348-8-18 22.112-9.052 42.74-21.75 59-41M132 9C65.5 7.5 8.789 65.021 9 132c0 68.231 54.767 124 123 124s124-55.769 124-124S200.24 9 132 9"/>
</symbol><symbol id="facebook" viewBox="0 0 264 264">
    <path d="M154 256V143h41l6-44h-47V71c0-12.712 3.94-21 24-21h25V11a341 341 0 0 0-37-2c-36.879 0-62 20.421-62 58v32H62v44h42v113z"/>
</symbol><symbol id="github" viewBox="0 0 264 264">
    <path d="M163 246v-34c0-11.521-3.571-19.17-8-23 27.5-3.061 56-13.561 56-61 0-13.481-4.083-24.354-12-33 1.281-3.114 4.72-15.99-2-33 0 0-10.431-2.978-34 13 0 0-27.6-9.259-61 0-23.6-15.978-34-13-34-13-6.708 17.01-3.281 29.886-2 33-7.9 8.646-12 19.519-12 33 0 47.325 28.57 57.88 56 61-3.532 3.086-6.89 9.017-8 17-7.046 3.157-24.988 7.877-36-11 0 0-6.6-11.129-19-12 0 0-12.2-.66-1 7 0 0 8.384 3.725 14 18 0 0 7.642 22.468 42 15 .053 10.318 0 20.054 0 23 0 3.259-2.829 7.141-9 6-49.75-16.597-84.181-64.554-84-117C9 66.789 63.8 11 132 11s124 55.788 124 124c.159 52.439-34.263 100.384-84 117-6.172 1.536-9-3.136-9-6"/>
</symbol><symbol id="google" viewBox="0 0 264 264">
    <path d="M94.025 249.061c46.045 15.461 103.354 4.436 134-35 22.364-27.618 27.407-64.6 25-99-39.436-.36-79.628-.059-119 0-.074 14.05.96 27.95 1 42 23.618.657 46.385.528 70 1-5.96 20.423-19.386 39.63-40 47-39.776 17.534-90.477-6.273-103-48-15.092-39.969 10.133-87.367 51-99 25.322-8.907 51.312.832 73 14 10.954-10.278 20.905-20.911 31-32-24.633-20.614-49.758-32-89-31s-115.321 33.87-117 124 83 116 83 116"/>
</symbol><symbol id="instagram" viewBox="0 0 264 264">
    <path d="M84.425 254c-45.185-1.471-71.842-28.086-74-74-.566-12.745-.566-82.91 0-95 1.859-45.9 27.774-71.828 74-74 31.608-1.406 63.394-1.479 95 0 46.019 2.124 71.935 28.026 74 74 .567 12.725.567 82.909 0 95-2.143 46.356-28 72.258-74 74-31.607 1.409-63.394 1.478-95 0m1-226c-36.613 1.72-56.527 21.65-58 58-.538 11.509-.536 80.939 0 93 1.192 25.362 12.8 56.527 58 58 30.642 1.427 62.356 1.362 93 0 36.417-1.379 56.3-21.3 58-58 .538-11.491.537-80.94 0-93-1.636-36.41-21.531-56.317-58-58-30.638-1.443-62.359-1.362-93 0m-20 105c0-36.944 30.056-68 67-68s67 31.056 67 68-30.056 66-67 66-67-29.056-67-66m18 0c0 27.019 21.981 48 49 48s49-20.981 49-48-21.981-50-49-50-49 22.981-49 50m103-70c0-7.625 6.375-14 14-14s14 6.375 14 14-6.375 14-14 14-14-6.375-14-14"/>
</symbol><symbol id="linkedin" viewBox="0 0 264 264">
    <path d="M205 256c0-99.186 5.512-121.817-27-124-35.869 3.755-30 21.058-30 124H96V91h49v22c7.53-12.948 25.1-26 50-26 51.823 0 61 33.648 61 78v91zm-192 0V91h51v165zM9 39C9.111 22.705 22.705 9.111 39 9c16.372 0 29 13.619 29 30 .251 15.72-13.118 29.254-29 29C22.563 68 9 55.387 9 39"/>
</symbol><symbol id="pinterest" viewBox="0 0 264 264">
    <path d="M228 90c0 55.669-30.376 98-76 98-15.318 0-30.055-8.591-35-18 0 0-8.26 32.7-10 39-6.133 22.277-24.6 44.156-26 46-.943 1.242-2.99.559-3-1-.4-2.844-5.428-30.05 0-53 2.723-11.509 19-78 19-78s-5-8.612-5-22c0-21.029 12.838-37 28-37 12.905 0 19 9.387 19 21 0 12.983-8.728 33.03-13 51-3.567 15.059 8.15 27 23 27 26.874 0 45-34.1 45-75 0-31.09-20.905-55-59-55-43.023 0-70 32.144-70 68 0 12.353 3.3 21.263 9 28 2.62 3.1 2.95 4.433 2 8-.7 2.618-2.327 8.5-3 11-.93 3.584-3.743 5.326-7 4-19.814-8.1-29-29.6-29-54C37 57.691 70.6 9 138 9c54.193 0 90 38.918 90 81"/>
</symbol><symbol id="snapchat" viewBox="0 0 264 264">
    <path d="M131.01 250c-17.407 0-26.048-6.289-34-12-5.422-4.066-11.14-8.857-18-10-9.146-2.126-17.166 1-26 1-.161 0 .215.015 0 0-7.726-.111-10.53-5.387-11-7-.765-2.976-1.232-6.019-2-9-27.415-4.232-32.73-12.624-33-19-.2-4.661 2.372-7.976 7-9 27.874-4.6 46.99-35.314 47-43-2.256-4.419-9.942-6.645-14-8-12.093-4.737-16.357-9.892-15-17 1.423-7.491 8.39-12 15-12 2.03.122 4.04.457 6 1 3.297.748 6.59 2 10 2-1.386-22.1-2.884-41.052 2-52 4.327-9.7 22.385-40.993 67-41 41 0 59.108 25.549 66 41 7.219 15.456 4.197 35.573 2.99 52 4.683-.765 9.286-4 14.01-4 10.251.236 16.867 8.207 17 15 .168 9.283-10.482 13.218-15 15-4.571 1.792-13.019 2.389-15 8 .044 7.406 20.183 37.581 47 42 4.484.7 7.03 5.3 7 10-.059 9.276-10.378 15.383-33 19-.642 2.833-.933 6.357-2 9-1.394 4.214-4.33 6.909-9 7-9.317.731-18.235-3.173-28-1-7.309 1.219-12.6 6.8-19 10-9.202 6.143-17.076 11.997-34 12m-49-36c8.874 1.471 15.224 8.112 23 12 7.433 5.338 13.1 10 26 10 12.693 0 17.5-3.329 26-9 7.762-4.657 14.817-11.468 24-13 9.259-1.653 17.802-.359 27 1 1.043-6.074 2.18-14.484 10-15a97.7 97.7 0 0 0 18-4c-21.9-7.886-37.739-27.788-44-41-2.956-6.239-4.73-12.589-2-19 2.154-5.978 8.522-10.89 21-15 2.626-1.027 5-1.4 6-2-.4-.163-1.257-.983-2-1-4.795 1.769-9.869 3.731-15 4-4.581-.153-11.583-1.333-13.56-6.276-1.321-3.301.307-7.353.56-10.724 1.065-14.185 2.358-33.666-2-43-5.56-12.462-19.916-33-53-33-35.21.005-49.566 23.057-54 33-4 8.966-1.91 32.727-1 47 0 3.155.523 6.61-2 9-1.8 1.87-6.522 4-13 4-4.388-.243-8.752-1.413-13.01-2.5-.352-.08-.675.572-.99.5.82.408 2.773.515 4 1 12.206 4.07 18.47 9.11 21 15 2.224 3.889 1.83 9.019-1 16-5.471 13.491-21.4 35.7-45 44a86.5 86.5 0 0 0 18 4c6.875.285 8.69 8.53 10 15 9.134-1.442 17.81-2.755 27-1"/>
</symbol><symbol id="tumblr" viewBox="0 0 264 264">
    <path fill-rule="evenodd" clip-rule="evenodd" d="M87 115.005c.031-3.17-.977-4.076-4-4-7.977.2-16.021-.193-24 0-2.958.071-4.094.254-4-3 .241-8.39.164-17.61 0-26-.05-2.584.658-3.89 3-5 43.164-22.048 47.632-51.89 48-65 .09-3.211 1.034-4.068 4-4 8.118.19 15.886.216 24 0 3.135-.082 4.02.938 4 4-.113 18.722.159 37.28 0 56-.027 3.424.59 4.023 4 4 18.444-.136 37.56.175 56 0 3.581-.035 4.055 1.672 4 5-.175 10.32-.2 20.68 0 31 .06 3.043-1.244 3.015-4 3-18.58-.109-36.419.147-55 0-3.253-.025-5.025.363-5 4 .174 23.81.531 77.3 1 80 9.089 36.739 52.673 18.89 65 14 4.524-1.8 3.991-1.686 4 3 .018 10.324-.06 20.676 0 31 .008 1.779.161 3.444-2 4-24.788 6.393-49.3 10.28-75 7-8.935-1.144-42.272-7-44-42-.329-15.96 0-97 0-97"/>
</symbol><symbol id="twitter" viewBox="0 0 264 264">
    <path d="M256 55.002a100.6 100.6 0 0 1-29 8 50.3 50.3 0 0 0 22-28 99.9 99.9 0 0 1-32 12c-9.517-10.15-23.086-16.018-37-16-30.6-.29-56.594 28.632-49 62-40.606-2.038-79.245-21.541-105-53-6.393 9.656-16.462 44.574 16 68a57.3 57.3 0 0 1-23-6c-.858 24.145 17.818 45.343 41 50a54.4 54.4 0 0 1-23 1c6.432 20.333 25.676 34.664 47 35-17.344 13.6-41.765 24.2-75 21a144.7 144.7 0 0 0 78 23c93.211 0 147.582-79.278 144-151a100.9 100.9 0 0 0 25-26"/>
</symbol><symbol id="whatsapp" viewBox="0 0 264 264">
    <path d="m10.378 242 15-54c-9.4-17.552-14.006-38.073-14-58 .026-66.718 54.307-120 121-120 32.239.006 62.094 12.078 85 35a121.9 121.9 0 0 1 36 86c-.027 66.72-54.306 121-121 121-19.134 0-38.578-5.115-56-14l-55 15c-6.524 1.775-13.263-3.617-11-11m72-21a102.65 102.65 0 0 0 50 13c56.772 0 102.978-47.2 103-104 .005-27.383-11.507-52.492-31-72-19.219-19.204-45.831-30.14-73-30-56.77 0-101.978 46.2-102 103-.005 18.045 3.97 35.356 13 51a9.3 9.3 0 0 1 1 7l-12 43 44-12c3.106-1.382 4.178-.54 7 1m52-37c-32.792-14.157-54.368-47.817-56-50-.9-1.2-13.919-18.256-13-35s9.648-24.523 11-26c6.187-5.913 17.205-4.285 18-4a6.5 6.5 0 0 1 3 3c4.264 8.044 11.366 25.736 12 27a6.69 6.69 0 0 1 0 6c-2.156 4.641-4.279 6.627-8 11-1.635 1.627-2.907 3.728-1 7a97 97 0 0 0 18 22 100.7 100.7 0 0 0 26 17c3.268 1.633 5.092 1.181 7-1s7.824-9.725 10-13 5-3.088 8-2c2.4.874 19.412 9.346 26 13 1.987 1.1 2.914 1.969 3 4 .193 3.13-1.015 7.432-3 13-1.681 4.711-11.079 14.49-26 16-11.915 1.206-24.304-3.383-35-8"/>
</symbol><symbol id="youtube" viewBox="0 0 264 264">
    <path d="M251 72c-2.896-10.608-11.391-19.103-22-22-19.262-5.161-97-5-97-5s-76.738-.161-96 5c-10.609 2.897-19.104 11.392-22 22-5.16 19.263-5 59.001-5 59.001s-.16 40.738 5 60c2.895 10.609 11.39 19.104 22 22 19.262 5.162 96 5 96 5s77.738.162 97-5c10.61-2.896 19.105-11.391 22-22 5.16-19.262 5-60 5-60s.16-39.735-5-59m-143 97.001v-75l64 37z"/>
</symbol></svg>