<?xml version="1.0" encoding="UTF-8"?><!DOCTYPE svg PUBLIC "-//W3C//DTD SVG 1.1//EN" "http://www.w3.org/Graphics/SVG/1.1/DTD/svg11.dtd"><svg xmlns="http://www.w3.org/2000/svg" xmlns:xlink="http://www.w3.org/1999/xlink"><defs/><symbol id="pinch" viewBox="0 0 264 264">
    <path d="M9.377 174.118C-11 138.5 14.802 87.614 59.117 91.515c5.964.516 10.522 6.004 10.01 11.91-.517 5.969-5.94 10.527-11.91 10.009C29.81 110.886 15.5 141.5 28.845 163.87c2.79 5.302.691 12.066-4.61 14.857-5.25 2.775-12.113.633-14.857-4.609m169.966-84.116.006-29.17c0-5.992 5.009-11 11-11s11 5.008 11 11v3.986l24.459-24.459h-3.987c-5.991 0-11-5.009-11-11s5.009-11 11-11l29.171-.006c3.377-.461 6.852.71 9.26 3.123a11.24 11.24 0 0 1 3.277 7.88l-.008 30.855c0 5.991-5.009 11-11 11-5.983.005-11.007-5.076-10.997-11.003v-4.444l-24.766 24.767h4.444c5.991 0 11 5.009 11 11s-5.009 11-11 11l-30.855.006c-6.555-.009-11.905-5.947-11.004-12.535"/>
    <path d="M64.447 209.363c-3.241-12.067-6.914-25.745-27.821-47.184-13.498-13.78-3.234-42.125 16.729-41.876 7.905 0 16.2 3.9 24.145 11.042V56.501c-.16-14.77 12.23-27.16 27-27 14.769-.16 27.159 12.23 27 27v46.318c9.237-1.479 18.932 2.298 25.122 9.222 10.6-3.804 22.854-.298 29.906 8.473 17.008-4.48 35.972 7.446 35.972 25.986v57c0 27.678-20.428 60-78 60-39.375 0-69.77-15.866-80.053-54.137m-11.458-61.916c24.51 30.053 28.187 43.109 31.7 56.2 7.206 26.853 30.587 38.844 59.807 38.844 35.065 0 56-15.206 56-39v-57c0-5.491-6.932-7.991-10.034-3.627-2.653 3.732-7.488 5.45-11.9 4.228-4.413-1.221-7.676-5.181-8.032-9.746-.244-4.773-6.54-6.543-9.068-2.48-2.653 3.731-7.488 5.449-11.9 4.227-4.413-1.221-7.676-5.181-8.032-9.746-.877-5.847-8.825-6.124-10.724-1.018-1.834 4.928-7.084 7.922-12.258 6.99-5.175-.931-9.051-5.568-9.051-10.826v-68c.095-2.757-2.244-5.095-5-5-2.761-.095-5.096 2.24-5 5v108c0 5.004-3.516 9.488-8.375 10.682-4.86 1.194-10.052-1.15-12.371-5.584-11.653-22.281-22.514-27.3-25.4-27.3-2.198 0-2.096 3.709-.362 5.156M49.144 53.19c0-27.768 25.712-52.159 55.023-52.2 28.162.218 55.053 22.947 55.053 52.092 0 5.992-5.009 11-11 11-5.992 0-11-5.008-11-11 0-17.12-16.918-29.81-33.023-30.09-17.3.022-33.053 14.417-33.053 30.2 0 5.992-5.009 11-11 11-5.99.002-11-5.003-11.003-10.993z"/>
</symbol><symbol id="swipe-down" viewBox="0 0 264 264">
    <path d="m211.58 115.85-21.813-21.823c-4.237-4.237-4.237-11.32 0-15.557 4.186-4.196 11.331-4.235 15.556.003l3.039 3.041V20c0-5.991 5.009-11 11-11s11 5.009 11 11v61.5l2.921-2.922c4.237-4.236 11.32-4.236 15.556 0 4.238 4.237 4.238 11.321 0 15.558l-21.707 21.717c-4.221 4.223-11.295 4.259-15.552-.003M45.794 209.363c-3.24-12.067-6.914-25.745-27.82-47.184-13.498-13.78-3.235-42.125 16.728-41.876 7.905 0 16.2 3.9 24.145 11.042V56.501c-.16-14.77 12.23-27.16 27-27 14.77-.16 27.16 12.23 27 27v46.318c9.237-1.479 18.933 2.298 25.122 9.222 10.601-3.804 22.854-.298 29.906 8.473 17.008-4.48 35.972 7.446 35.972 25.986v57c0 27.678-20.428 60-78 60-39.375 0-69.77-15.866-80.053-54.137m-11.458-61.916c24.511 30.053 28.187 43.109 31.7 56.2 7.206 26.853 30.587 38.844 59.807 38.844 35.065 0 56-15.206 56-39v-57c0-5.491-6.932-7.991-10.034-3.627-2.652 3.732-7.488 5.45-11.9 4.228-4.412-1.221-7.676-5.181-8.032-9.746-.243-4.773-6.54-6.543-9.068-2.48-2.653 3.731-7.488 5.449-11.9 4.227s-7.676-5.181-8.032-9.746c-.877-5.847-8.825-6.124-10.724-1.018-1.833 4.928-7.084 7.922-12.258 6.99s-9.051-5.568-9.05-10.826v-68c.094-2.757-2.244-5.095-5-5-2.761-.095-5.096 2.24-5 5v108c-.001 5.004-3.517 9.488-8.376 10.682s-10.052-1.15-12.37-5.584c-11.654-22.281-22.515-27.3-25.4-27.3-2.199 0-2.097 3.709-.363 5.156M30.491 53.19c0-27.768 25.712-52.159 55.023-52.2 28.162.218 55.053 22.947 55.053 52.092 0 5.992-5.009 11-11 11s-11-5.008-11-11c0-17.12-16.917-29.81-33.023-30.09-17.3.022-33.053 14.417-33.053 30.2 0 5.992-5.009 11-11 11-5.99.002-11-5.003-11.003-10.993z"/>
</symbol><symbol id="swipe-left" viewBox="0 0 264 264">
    <path d="M178.394 90.55 157.17 69.337c-4.815-4.135-5.077-11.685-.6-16.159l21.717-21.707c4.237-4.236 11.32-4.236 15.556 0 4.237 4.237 4.237 11.32 0 15.557l-2.971 2.97h61.478c5.992 0 11 5.009 11 11 0 5.992-5.009 11-11 11h-61.392l2.991 2.99c4.236 4.237 4.236 11.32 0 15.556-4.228 4.24-11.325 4.244-15.556.005zm-143.6 118.813c-3.24-12.067-6.914-25.745-27.82-47.184-13.498-13.78-3.235-42.125 16.728-41.876 7.905 0 16.2 3.9 24.145 11.042V56.501c-.16-14.77 12.23-27.16 27-27 14.77-.16 27.16 12.23 27 27v46.318c9.237-1.479 18.933 2.298 25.122 9.222 10.601-3.804 22.854-.298 29.906 8.473 17.008-4.48 35.972 7.446 35.972 25.986v57c0 27.678-20.428 60-78 60-39.375 0-69.77-15.866-80.053-54.137m-11.458-61.916c24.511 30.053 28.187 43.109 31.7 56.2 7.206 26.853 30.587 38.844 59.807 38.844 35.065 0 56-15.206 56-39v-57c0-5.491-6.932-7.991-10.034-3.627-2.652 3.732-7.488 5.45-11.9 4.228-4.412-1.221-7.676-5.181-8.032-9.746-.243-4.773-6.54-6.543-9.068-2.48-2.653 3.731-7.488 5.449-11.9 4.227s-7.676-5.181-8.032-9.746c-.877-5.847-8.825-6.124-10.724-1.018-1.833 4.928-7.084 7.922-12.258 6.99s-9.051-5.568-9.05-10.826v-68c.094-2.757-2.244-5.095-5-5-2.761-.095-5.096 2.24-5 5v108c-.001 5.004-3.517 9.488-8.376 10.682s-10.052-1.15-12.37-5.584c-11.654-22.281-22.515-27.3-25.4-27.3-2.199 0-2.097 3.709-.363 5.156M19.491 53.19c0-27.768 25.712-52.159 55.023-52.2 28.162.218 55.053 22.947 55.053 52.092 0 5.992-5.009 11-11 11s-11-5.008-11-11c0-17.12-16.917-29.81-33.023-30.09-17.3.022-33.053 14.417-33.053 30.2 0 5.992-5.009 11-11 11-5.99.002-11-5.003-11.003-10.993z"/>
</symbol><symbol id="swipe-right" viewBox="0 0 264 264">
    <path d="M222.717 90.546c-6.183-6.17-2.134-13.42 2.994-18.546h-61.365c-5.991 0-11-5.009-11-11s5.009-11 11-11h61.451l-2.971-2.97c-4.237-4.237-4.237-11.32 0-15.557 4.236-4.236 11.32-4.236 15.556 0l21.717 21.707c4.53 4.527 4.207 12.22-.741 16.302l-21.082 21.071c-4.228 4.238-11.375 4.193-15.559-.007M34.794 209.363c-3.24-12.067-6.914-25.745-27.82-47.184-13.498-13.78-3.235-42.125 16.728-41.876 7.905 0 16.2 3.9 24.145 11.042V56.501c-.16-14.77 12.23-27.16 27-27 14.77-.16 27.16 12.23 27 27v46.318c9.237-1.479 18.933 2.298 25.122 9.222 10.601-3.804 22.854-.298 29.906 8.473 17.008-4.48 35.972 7.446 35.972 25.986v57c0 27.678-20.428 60-78 60-39.375 0-69.77-15.866-80.053-54.137m-11.458-61.916c24.511 30.053 28.187 43.109 31.7 56.2 7.206 26.853 30.587 38.844 59.807 38.844 35.065 0 56-15.206 56-39v-57c0-5.491-6.932-7.991-10.034-3.627-2.652 3.732-7.488 5.45-11.9 4.228-4.412-1.221-7.676-5.181-8.032-9.746-.243-4.773-6.54-6.543-9.068-2.48-2.653 3.731-7.488 5.449-11.9 4.227s-7.676-5.181-8.032-9.746c-.877-5.847-8.825-6.124-10.724-1.018-1.833 4.928-7.084 7.922-12.258 6.99s-9.051-5.568-9.05-10.826v-68c.094-2.757-2.244-5.095-5-5-2.761-.095-5.096 2.24-5 5v108c-.001 5.004-3.517 9.488-8.376 10.682s-10.052-1.15-12.37-5.584c-11.654-22.281-22.515-27.3-25.4-27.3-2.199 0-2.097 3.709-.363 5.156M19.491 53.19c0-27.768 25.712-52.159 55.023-52.2 28.162.218 55.053 22.947 55.053 52.092 0 5.992-5.009 11-11 11s-11-5.008-11-11c0-17.12-16.917-29.81-33.023-30.09-17.3.022-33.053 14.417-33.053 30.2 0 5.992-5.009 11-11 11-5.99.002-11-5.003-11.003-10.993z"/>
</symbol><symbol id="swipe-up" viewBox="0 0 264 264">
    <path d="M208.365 108.073V46.56l-3.039 3.041c-4.237 4.236-11.32 4.236-15.556 0-4.237-4.237-4.237-11.32 0-15.557l21.813-21.823c4.233-4.234 11.331-4.25 15.559 0l21.707 21.716c4.193 4.192 4.233 11.326 0 15.558-4.237 4.236-11.32 4.236-15.556 0l-2.921-2.922v61.5c0 5.991-5.009 11-11 11-5.994.003-11.007-5.007-11.006-11.001zM45.794 209.363c-3.241-12.067-6.914-25.745-27.821-47.184-13.498-13.78-3.234-42.125 16.729-41.876 7.905 0 16.2 3.9 24.145 11.042V56.501c-.16-14.77 12.23-27.16 27-27 14.769-.16 27.159 12.23 27 27v46.318c9.237-1.479 18.933 2.298 25.122 9.222 10.601-3.804 22.854-.298 29.906 8.473 17.008-4.48 35.972 7.446 35.972 25.986v57c0 27.678-20.428 60-78 60-39.375 0-69.77-15.866-80.053-54.137m-11.458-61.916c24.51 30.053 28.187 43.109 31.7 56.2 7.206 26.853 30.587 38.844 59.807 38.844 35.065 0 56-15.206 56-39v-57c0-5.491-6.932-7.991-10.034-3.627-2.653 3.732-7.488 5.45-11.9 4.228-4.412-1.221-7.676-5.181-8.032-9.746-.243-4.773-6.54-6.543-9.068-2.48-2.653 3.731-7.488 5.449-11.9 4.227s-7.676-5.181-8.032-9.746c-.877-5.847-8.825-6.124-10.724-1.018-1.834 4.928-7.084 7.922-12.258 6.99s-9.051-5.568-9.051-10.826v-68c.095-2.757-2.243-5.095-5-5-2.76-.095-5.095 2.24-5 5v108c0 5.004-3.516 9.488-8.375 10.682-4.86 1.194-10.052-1.15-12.371-5.584-11.653-22.281-22.514-27.3-25.4-27.3-2.198 0-2.096 3.709-.362 5.156M30.49 53.19c0-27.768 25.712-52.159 55.023-52.2 28.162.218 55.053 22.947 55.053 52.092 0 5.992-5.009 11-11 11s-11-5.008-11-11c0-17.12-16.918-29.81-33.023-30.09-17.3.022-33.053 14.417-33.053 30.2 0 5.992-5.009 11-11 11-5.99.002-11-5.003-11.003-10.993z"/>
</symbol><symbol id="swipe" viewBox="0 0 264 264">
    <path d="M222.717 89.546c-4.196-4.186-4.234-11.33.003-15.556l2.991-2.989h-34.754l2.99 2.99c4.236 4.236 4.236 11.319 0 15.555s-11.32 4.236-15.556 0l-21.218-21.208c-4.819-4.134-5.084-11.687-.605-16.163l21.717-21.707c4.236-4.236 11.32-4.236 15.556 0 4.236 4.237 4.236 11.32 0 15.556l-2.971 2.97h34.929l-2.972-2.97c-4.236-4.236-4.236-11.32 0-15.556s11.32-4.236 15.556 0L260.1 52.175c4.536 4.53 4.206 12.231-.749 16.311l-21.071 21.06c-4.231 4.24-11.334 4.24-15.564 0zM34.794 209.363c-3.241-12.067-6.914-25.745-27.821-47.184-13.497-13.78-3.234-42.125 16.729-41.876 7.905 0 16.2 3.9 24.145 11.042V56.501c-.16-14.77 12.23-27.16 27-27 14.77-.16 27.16 12.23 27 27v46.318c9.237-1.479 18.933 2.298 25.122 9.222 10.601-3.804 22.854-.298 29.906 8.473 17.008-4.48 35.972 7.446 35.972 25.986v57c0 27.678-20.428 60-78 60-39.375 0-69.77-15.866-80.053-54.137m-11.458-61.916c24.511 30.053 28.187 43.109 31.7 56.2 7.206 26.853 30.587 38.844 59.807 38.844 35.065 0 56-15.206 56-39v-57c0-5.491-6.932-7.991-10.034-3.627-2.653 3.732-7.488 5.45-11.9 4.228-4.412-1.221-7.676-5.181-8.032-9.746-.243-4.773-6.54-6.543-9.068-2.48-2.653 3.731-7.488 5.449-11.9 4.227s-7.676-5.181-8.032-9.746c-.877-5.847-8.825-6.124-10.724-1.018-1.834 4.928-7.084 7.922-12.258 6.99s-9.051-5.568-9.051-10.826v-68c.095-2.757-2.243-5.095-5-5-2.76-.095-5.095 2.24-5 5v108c0 5.004-3.516 9.488-8.375 10.682-4.86 1.194-10.052-1.15-12.371-5.584-11.653-22.281-22.514-27.3-25.4-27.3-2.198 0-2.096 3.709-.362 5.156M19.491 53.19c0-27.768 25.712-52.159 55.023-52.2 28.162.218 55.053 22.947 55.053 52.092 0 5.992-5.009 11-11 11s-11-5.008-11-11c0-17.12-16.917-29.81-33.023-30.09-17.3.022-33.053 14.417-33.053 30.2 0 5.992-5.009 11-11 11-5.99.002-11-5.003-11.003-10.993z"/>
</symbol><symbol id="touch-dual" viewBox="0 0 264 264">
    <path d="M174.798 53.061a55.9 55.9 0 0 0-11.9-34.309 10.96 10.96 0 0 1-2.261-6.672 11 11 0 0 1 1.136-4.88 11.002 11.002 0 0 1 18.605-1.808 78.47 78.47 0 0 1 16.419 47.556v.071a10.997 10.997 0 0 1-10.944 10.984h-.058a11 11 0 0 1-10.997-10.942M41.944 64.004a11 11 0 0 1-10.945-11v-.057A78.47 78.47 0 0 1 47.419 5.39a11 11 0 1 1 17.479 13.36 55.9 55.9 0 0 0-11.9 34.309 11 11 0 0 1-11 10.943z"/>
    <path d="M73.947 209.363c-3.241-12.067-6.914-25.745-27.821-47.184-13.497-13.78-3.234-42.125 16.729-41.876 7.905 0 16.2 3.9 24.145 11.042V56.501c-.16-14.77 12.23-27.16 27-27 14.769-.16 27.16 12.23 27 27v46.318c9.237-1.479 18.933 2.298 25.122 9.222 10.601-3.804 22.854-.298 29.906 8.473C213.036 116.034 232 127.96 232 146.5v57c0 27.678-20.428 60-78 60-39.375 0-69.77-15.866-80.053-54.137m-11.458-61.916c24.511 30.053 28.187 43.109 31.7 56.2 7.206 26.853 30.587 38.844 59.807 38.844 35.065 0 56-15.206 56-39v-57c0-5.491-6.932-7.991-10.034-3.627-2.653 3.732-7.488 5.45-11.9 4.228-4.412-1.221-7.676-5.181-8.032-9.746-.243-4.773-6.54-6.543-9.068-2.48-2.653 3.731-7.488 5.449-11.9 4.227s-7.676-5.181-8.032-9.746c-.877-5.847-8.825-6.124-10.724-1.018-1.833 4.928-7.084 7.922-12.258 6.99s-9.051-5.568-9.051-10.826v-68c.095-2.757-2.243-5.095-5-5-2.76-.095-5.095 2.24-5 5v108c0 5.004-3.516 9.488-8.375 10.682-4.86 1.194-10.052-1.15-12.371-5.584-11.653-22.281-22.514-27.3-25.4-27.3-2.198 0-2.096 3.709-.362 5.156M58.644 53.19c0-27.768 25.712-52.159 55.023-52.2 28.162.218 55.053 22.947 55.053 52.092 0 5.992-5.009 11-11 11s-11-5.008-11-11c0-17.12-16.917-29.81-33.023-30.09-17.3.022-33.053 14.417-33.053 30.2 0 5.992-5.009 11-11 11-5.99.002-11-5.003-11.003-10.993z"/>
</symbol><symbol id="touch" viewBox="0 0 264 264">
    <path d="M69.794 209.363c-3.241-12.067-6.914-25.745-27.821-47.184-13.497-13.78-3.234-42.125 16.729-41.876 7.905 0 16.2 3.9 24.145 11.042V56.501c-.16-14.77 12.23-27.16 27-27 14.769-.16 27.16 12.23 27 27v46.318c9.237-1.479 18.933 2.298 25.122 9.222 10.601-3.804 22.854-.298 29.906 8.473 17.008-4.48 35.972 7.446 35.972 25.986v57c0 27.678-20.428 60-78 60-39.375 0-69.77-15.866-80.053-54.137m-11.458-61.916c24.511 30.053 28.187 43.109 31.7 56.2 7.206 26.853 30.587 38.844 59.807 38.844 35.065 0 56-15.206 56-39v-57c0-5.491-6.932-7.991-10.034-3.627-2.653 3.732-7.488 5.45-11.9 4.228-4.412-1.221-7.676-5.181-8.032-9.746-.243-4.773-6.54-6.543-9.068-2.48-2.653 3.731-7.488 5.449-11.9 4.227s-7.676-5.181-8.032-9.746c-.877-5.847-8.825-6.124-10.724-1.018-1.833 4.928-7.084 7.922-12.258 6.99s-9.051-5.568-9.051-10.826v-68c.095-2.757-2.243-5.095-5-5-2.76-.095-5.095 2.24-5 5v108c0 5.004-3.516 9.488-8.375 10.682-4.86 1.194-10.052-1.15-12.371-5.584-11.653-22.281-22.514-27.3-25.4-27.3-2.198 0-2.096 3.709-.362 5.156M54.491 53.19c0-27.768 25.712-52.159 55.023-52.2 28.162.218 55.053 22.947 55.053 52.092 0 5.992-5.009 11-11 11s-11-5.008-11-11c0-17.12-16.917-29.81-33.023-30.09-17.3.022-33.053 14.417-33.053 30.2 0 5.992-5.009 11-11 11-5.99.002-11-5.003-11.003-10.993z"/>
</symbol></svg>