<?xml version="1.0" encoding="UTF-8"?><!DOCTYPE svg PUBLIC "-//W3C//DTD SVG 1.1//EN" "http://www.w3.org/Graphics/SVG/1.1/DTD/svg11.dtd"><svg xmlns="http://www.w3.org/2000/svg" xmlns:xlink="http://www.w3.org/1999/xlink"><defs/><symbol id="bolt" viewBox="0 0 264 264">
    <path d="M107.573 262.071c-4.262-1.874-6.932-6.375-6.533-11.013l7.281-84.637L59.2 148.323c-6.66-2.452-9.282-10.804-5.218-16.622l88-126c2.818-4.036 8.146-5.722 12.773-4.042s7.631 6.391 7.204 11.295l-7.272 83.63 49.116 18.1c6.635 2.444 9.266 10.775 5.239 16.587l-88 127c-2.963 4.271-8.739 5.879-13.469 3.8m-27.39-129.462 43.62 16.07c4.597 1.693 7.577 6.384 7.157 11.265l-4.46 51.814 56.366-81.346-43.666-16.089c-4.601-1.695-7.581-6.391-7.156-11.275l4.436-51.047z"/>
</symbol><symbol id="cloud-bolt" viewBox="0 0 264 264">
    <path d="M122.09 253.902c-4.95-1.609-6.951-5.765-6.552-10.28l2.306-26.132-13.506-4.5c-6.18-2.059-8.77-9.689-5.123-15.086l14.12-20.9c-30.135 0-57.21 0-57.334-.01-29.812-2.268-54-27.2-54-58 0-22.249 12.036-42.143 32-52 10.282-38.065 45.058-65 84-65 28.033 0 53.459 13.621 70 37 39.694-3.584 75 29.691 75 70 0 38.131-30.308 68-69 68-.326 0-21.05.006-46.341.008l-.569 6.831 13.97 5.321c5.979 2.279 8.303 9.808 4.649 15.061l-32 46c-2.686 3.507-7.403 5.003-11.62 3.687M194 154.995c26.356 0 47-20.2 47-46 0-28.467-27.539-54.132-56-48-4.598.957-9.442-1.06-12-5-12.167-20.432-32.385-32-55-32-30.426 0-57.8 22.19-64 53-.788 3.663-3.474 6.733-7 8-14.507 5.471-23 18.995-23 34 .005 18.495 14.575 34.39 33 36 2.981-.022 136.933 0 137 0"/>
</symbol><symbol id="cloud-fog" viewBox="0 0 264 264">
    <path d="M88 263.501c-5.991 0-11-5.009-11-11s5.009-11 11-11h164c5.991 0 11 5.009 11 11s-5.009 11-11 11zm-76-40c-5.991 0-11-5.009-11-11s5.009-11 11-11h200c5.991 0 11 5.009 11 11s-5.009 11-11 11zm43.5-46.5c-29.812-2.269-54-27.2-54-58 0-22.249 12.036-42.144 32-52 10.283-38.064 45.058-65 84-65 28.033 0 53.459 13.622 70 37 39.694-3.584 75 29.691 75 70 0 38.131-30.308 68-69 68-.523-.006-137.895.002-138-.006zm138-22c26.356 0 47-20.2 47-46 0-28.465-27.539-54.136-56-48-4.598.958-9.442-1.06-12-5-12.167-20.431-32.385-32-55-32-30.426 0-57.8 22.19-64 53-.788 3.663-3.474 6.733-7 8-14.507 5.472-23 19-23 34 .006 18.494 14.576 34.389 33 36 2.981-.028 136.933-.006 137-.006z"/>
</symbol><symbol id="cloud-moon" viewBox="0 0 264 264">
    <path d="M55 261.994c-29.812-2.268-54-27.2-54-58 0-22.249 12.036-42.144 32-52 10.282-38.065 45.058-65 84-65a84.6 84.6 0 0 1 17.526 1.823c.324-28.392 17.994-61.995 47.968-68.113 7.144-1.463 13.545 5.315 11.67 12.364-6.9 25.975 1.227 43.885 9.263 54.336 11.542 15.01 30.861 25.1 48.073 25.1 7.189-.022 13.579 8.016 9.72 14.893-4.489 7.58-10.964 13.718-18.418 18.34 12.163 13.522 19.2 31.3 19.2 48.258 0 38.13-30.308 68-69 68-.521.005-137.895.005-138.002-.001m138-22c26.356 0 47-20.206 47-46 0-28.468-27.539-54.131-56-48-4.598.958-9.442-1.06-12-5-12.167-20.431-32.385-32-55-32-30.426 0-57.8 22.19-64 53-.788 3.663-3.474 6.733-7 8-14.507 5.471-23 18.995-23 34 .006 18.495 14.576 34.389 33 36 2.981-.022 136.933 0 137 0"/>
</symbol><symbol id="cloud-sun" viewBox="0 0 264 264">
    <path d="M55 261.995c-29.812-2.269-54-27.2-54-58 0-22.249 12.036-42.144 32-52 10.154-37.591 44.2-64.327 82.549-64.987 11.241-19.477 34.126-30.08 56.253-26.062 29.324 5.171 51.341 35.028 43.122 65.825 28.7 10.276 47.075 39.811 47.075 67.224 0 38.131-30.308 68-69 68-.522.003-137.894.008-137.999 0m138-22c26.356 0 47-20.206 47-46 0-28.465-27.539-54.135-56-48-4.598.958-9.442-1.061-12-5-12.167-20.431-32.385-32-55-32-30.426 0-57.8 22.19-64 53-.788 3.663-3.474 6.733-7 8-14.507 5.471-23 18.994-23 34 .006 18.495 14.576 34.39 33 36 2.981-.022 136.933 0 137 0m32.5-160.983c-4.64-6.11-2.652-12.364 2.325-15.849l17.093-11.969c4.907-3.437 11.883-2.207 15.32 2.7 3.437 4.908 2.207 11.883-2.7 15.32l-17.094 11.97c-1.922 1.344-10.305 3.94-14.944-2.172M100.381 56.488 88.413 39.395c-3.4-4.855-2.203-11.887 2.7-15.32 4.907-3.438 11.883-2.208 15.32 2.7l11.969 17.092c3.484 4.976 3.683 11.85-2.15 15.593-5.177 3.301-12.24 1.98-15.871-2.972m65.1-23.057 4.094-23.219c1.04-5.9 6.842-9.963 12.743-8.923 5.895 1.04 9.962 6.848 8.923 12.743l-4.094 23.22c-.941 5.335-5.107 9.734-12.123 9.168s-10.594-7.007-9.539-12.99z"/>
</symbol><symbol id="cloud-wind" viewBox="0 0 264 264">
    <path d="M147.138 240.194c-2.011-5.643 1.026-12.043 6.669-14.054 5.644-2.011 12.043 1.026 14.054 6.669 5.47 13.946 26.271 9.334 26.639-5.307 0-7.168-6.28-13-14-13h-64c-5.991 0-11-5.009-11-11s5.009-11 11-11h64c19.85 0 36 15.7 36 35 0 19.515-16.486 36-36 36-14.72-.089-28.215-9.517-33.362-23.308M60.5 214.5c-5.991 0-11-5.009-11-11s5.009-11 11-11h16c5.991 0 11 5.009 11 11s-5.009 11-11 11zM56 176.994c-29.812-2.268-54-27.2-54-58 0-22.249 12.036-42.143 32-52 10.283-38.065 45.058-65 84-65 28.033 0 53.459 13.621 70 37 39.694-3.584 75 29.692 75 70 0 38.131-30.308 68-69 68-.523 0-137.895.008-138 0m138-22c26.355 0 47-20.2 47-46 0-28.467-27.539-54.133-56-48-4.598.957-9.442-1.061-12-5-12.167-20.432-32.384-32-55-32-30.425 0-57.8 22.19-64 53-.788 3.663-3.474 6.733-7 8-14.507 5.471-23 18.995-23 34 .005 18.495 14.575 34.39 33 36 2.981-.022 136.933 0 137 0"/>
</symbol><symbol id="cloud" viewBox="0 0 264 264">
    <path d="M56 218.999c-29.812-2.268-54-27.2-54-58 0-22.249 12.035-42.144 32-52 10.283-38.065 45.058-65 84-65 28.033 0 53.459 13.621 70 37 39.694-3.584 75 29.691 75 70 0 38.131-30.308 68-69 68-.843.006-137.723.022-138 0m62-153c-30.426 0-57.8 22.19-64 53-.788 3.663-3.474 6.733-7 8-14.507 5.471-23 18.995-23 34 .006 18.494 14.576 34.389 33 36 8.944-.065 136.9 0 137 0 26.355 0 47-20.206 47-46 0-28.467-27.539-54.133-56-48-4.598.957-9.442-1.061-12-5-12.168-20.43-32.388-32-55-32"/>
</symbol><symbol id="clouds" viewBox="0 0 264 264">
    <path d="M56 245c-29.812-2.268-54-27.2-54-58 0-22.249 13.035-42.144 33-52 10.283-38.065 44.059-65 83-65 6.055 0 12.092.67 18 2 0-.044 0 .044 0 0 0-17.672 14.539-37.2 36-37 8.22-10.172 20.923-16.15 34-16 18.956 0 36.152 12.93 42 31 9.22 5.29 15.036 15.37 15 26 0 15.699-12.348 32-29 32h-30c35.509 5.187 59 37.877 59 69 0 38.131-30.308 68-69 68-.843 0-137.722.021-138 0m-1-100c-.788 3.663-3.474 6.733-7 8-14.15 5.165-23.872 18.937-24 34 .006 18.494 14.576 34.389 33 36 8.944-.066 136.9 0 137 0 26.355 0 47-20.206 47-46 0-29.444-27.376-52.547-56-47-4.32.949-8.874-1.122-11-5-12.168-20.431-33.384-33-56-33-30.425 0-56.8 22.19-63 53"/>
</symbol><symbol id="cold" viewBox="0 0 264 264">
    <path d="M65 196a68.9 68.9 0 0 1 16-44.246V52c0-28.673 22.878-52 51-52s51 23.327 51 52v99.754A68.9 68.9 0 0 1 199 196c-.041 36.476-30.523 66.959-67 67-36.476-.042-66.958-30.524-67-67m38-144v104a11 11 0 0 1-3.143 7.7A47.02 47.02 0 0 0 87 196c.028 24.499 20.501 44.972 45 45 24.499-.028 44.972-20.501 45-45a47 47 0 0 0-12.857-32.3A11 11 0 0 1 161 156V52c0-16.262-13.28-30-29-30s-29 13.738-29 30m3 144c.009-9.993 5.949-19.321 15-23.557V148c0-5.991 5.009-11 11-11s11 5.009 11 11v24.443c9.051 4.236 14.991 13.564 15 23.557-.016 14.155-11.845 25.984-26 26-14.155-.016-25.984-11.845-26-26"/>
</symbol><symbol id="fog" viewBox="0 0 264 264">
    <path d="M162.447 211.825c-18.321-18-41.407-19.065-59.61-.36-9.087 9.341-20.4 20.966-45.837 20.966-40.57 0-54.332-29.348-55.941-44.866-.617-5.959 3.848-11.457 9.807-12.075 5.925-.614 11.403 3.796 12.066 9.716.333 2.657 4.058 25.224 34.068 25.224 16.149 0 21.988-6 30.069-14.307 26.558-27.299 63.932-26.384 90.797.008 8.449 8.3 14.555 14.3 30.135 14.3 29.489 0 32.762-22.318 33.038-24.863 0-6.075 4.906-10.569 10.981-10.569s10.982 5.357 10.981 11.432c0 9.127-9.788 46-55 46-24.579.001-36.209-11.425-45.554-20.606m.115-71.391c-18.387-17.549-41.564-18.593-59.836-.349-9.08 9.066-20.38 20.349-45.725 20.349-40.547 0-54.32-28.672-55.938-43.833-.636-5.957 3.813-11.469 9.77-12.105 5.92-.632 11.41 3.759 12.094 9.673.338 2.57 4.075 24.264 34.073 24.264 16.243 0 22.089-5.838 30.181-13.917 26.579-26.54 63.696-25.648 90.57.005 8.463 8.076 14.577 13.911 30.25 13.911 29.482 0 32.764-21.451 33.041-23.9 0-6.075 4.905-10.552 10.98-10.552s10.98 5.374 10.979 11.449c0 8.929-9.788 45-55 45-24.486.003-36.101-11.086-45.438-19.994zm-.115-72.609c-18.321-18-41.407-19.065-59.61-.36C93.75 76.806 82.437 88.431 57 88.431c-40.57 0-54.332-29.348-55.941-44.866-.617-5.96 3.848-11.457 9.807-12.075 5.925-.614 11.403 3.797 12.066 9.717.333 2.657 4.058 25.224 34.068 25.224 16.149 0 21.988-6 30.069-14.307 26.558-27.298 63.932-26.384 90.797.008 8.449 8.3 14.555 14.3 30.135 14.3 29.489 0 32.762-22.317 33.038-24.863 0-6.075 4.906-10.569 10.981-10.569s10.982 5.357 10.981 11.432c0 9.127-9.788 46-55 46-24.579 0-36.209-11.426-45.554-20.607"/>
</symbol><symbol id="moon" viewBox="0 0 264 264">
    <path d="M141.94 262.64c-41.719 0-78.988-19.2-104.943-54.072C8.775 170.653 2.432 125.662 19.136 81.882c15.54-40.73 49.457-73.9 82.479-80.658 7.859-1.608 14.896 5.847 12.837 13.6-15.044 56.6 3.051 96.123 20.879 119.309 25.247 32.833 67.883 54.893 106.095 54.893 8.745-.162 17.029 7.374 11.988 16.357-18.62 33.179-65.506 57.257-111.474 57.257M88.889 29.527C70.408 39.995 50.658 60.98 39.69 89.724c-8.066 21.138-16.848 62.983 14.954 105.708 27.813 37.365 62.823 45.208 87.295 45.208 33.453 0 62.964-14.243 80.378-31.036-39.44-5.79-78.907-28.872-104.427-62.06-18.604-24.193-37.496-63.451-29.002-118.017"/>
</symbol><symbol id="rain-heavy" viewBox="0 0 264 264">
    <path d="M161.27 262.654c-5.531-2.304-8.228-8.854-5.923-14.385l10-24c2.304-5.531 8.854-8.228 14.385-5.923 5.525 2.302 8.203 8.913 5.923 14.385l-10 24c-1.69 4.056-5.761 6.769-10.155 6.769a11 11 0 0 1-4.23-.846m-90 0c-5.53-2.304-8.228-8.854-5.923-14.385l10-24c2.305-5.531 8.854-8.228 14.385-5.923 5.53 2.304 8.228 8.854 5.923 14.385l-10 24c-2.305 5.531-8.87 8.225-14.385 5.923m140-24c-5.531-2.304-8.228-8.854-5.923-14.385l10-24c2.304-5.531 8.854-8.229 14.385-5.924s8.228 8.854 5.923 14.385l-10 24c-2.304 5.532-8.87 8.225-14.386 5.924zm-88 0c-5.531-2.304-8.229-8.854-5.924-14.385l10-24c2.304-5.53 8.853-8.228 14.384-5.924s8.229 8.854 5.924 14.385l-10 24c-2.301 5.523-8.913 8.207-14.384 5.924m-89 0c-5.53-2.304-8.228-8.854-5.923-14.385l10-24c2.304-5.53 8.853-8.228 14.384-5.924s8.229 8.854 5.924 14.385l-10 24c-2.305 5.529-8.869 8.226-14.385 5.924M56 177c-29.812-2.268-54-27.2-54-58 0-22.249 12.036-42.143 32-52C44.282 28.935 79.058 2 118 2c28.033 0 53.459 13.621 70 37 39.694-3.584 75 29.691 75 70 0 38.131-30.308 68-69 68-.523 0-137.895.008-138 0m138-22c26.355 0 47-20.2 47-46 0-28.468-27.539-54.132-56-48-4.598.957-9.442-1.06-12-5-12.167-20.432-32.385-32-55-32-30.427 0-57.8 22.19-64 53-.788 3.663-3.474 6.733-7 8-14.507 5.471-23 18.995-23 34 .006 18.495 14.576 34.389 33 36 2.981-.022 136.933 0 137 0"/>
</symbol><symbol id="rain-snow" viewBox="0 0 264 264">
    <path d="M119.5 252.5v-5.736l-4.784 2.762c-5.189 2.995-12.031 1.162-15.026-4.027s-1.162-12.031 4.027-15.026l4.285-2.474-4.285-2.474c-5.189-2.995-7.022-9.837-4.027-15.026 2.996-5.188 9.837-7.022 15.026-4.026l4.784 2.762v-4.737c0-5.991 5.009-11 11-11s11 5.009 11 11v4.16l3.785-2.185c5.189-2.996 12.03-1.162 15.026 4.026 2.995 5.189 1.162 12.031-4.027 15.026L152 228l4.285 2.474c5.189 2.995 7.022 9.837 4.027 15.026s-9.837 7.022-15.026 4.027l-3.785-2.185v5.159c0 5.991-5.009 11-11 11-5.928.001-11.002-5.015-11.001-11.001m91.77-13.846c-5.531-2.304-8.228-8.854-5.923-14.385l10-24c2.304-5.531 8.854-8.229 14.385-5.924s8.228 8.854 5.923 14.385l-10 24c-2.304 5.532-8.87 8.225-14.386 5.924zm-177 0c-5.53-2.304-8.228-8.854-5.923-14.385l10-24c2.304-5.531 8.854-8.229 14.385-5.924 5.53 2.304 8.228 8.854 5.923 14.385l-10 24c-2.304 5.531-8.869 8.225-14.385 5.924M56 177c-29.812-2.268-54-27.2-54-58 0-22.249 12.035-42.143 32-52C44.283 28.935 79.059 2 118 2c28.033 0 53.458 13.621 70 37 39.694-3.584 75 29.691 75 70 0 38.131-30.308 68-69 68-.523 0-137.895.008-138 0m138-22c26.356 0 47-20.2 47-46 0-28.468-27.539-54.132-56-48-4.598.957-9.442-1.06-12-5-12.168-20.432-32.385-32-55-32-30.426 0-57.8 22.19-64 53-.788 3.663-3.474 6.733-7 8-14.508 5.471-23 18.995-23 34 .006 18.495 14.576 34.389 33 36 2.981-.022 136.933 0 137 0"/>
</symbol><symbol id="rain" viewBox="0 0 264 264">
    <path d="M161.5 252.5v-24c0-5.991 5.009-11 11-11 5.985 0 11 5.072 11 11v24c0 5.992-5.008 11-11 11-5.991 0-11-5.009-11-11m-80 0v-24c0-5.991 5.009-11 11-11s11 5.009 11 11v24c0 5.991-5.009 11-11 11s-11-5.009-11-11m120-24v-24c0-5.991 5.009-11 11-11s11 5.009 11 11v24c0 5.991-5.009 11-11 11s-11-5.009-11-11m-80 0v-24c0-5.991 5.009-11 11-11s11 5.009 11 11v24c0 5.991-5.009 11-11 11s-11-5.009-11-11m-80 0v-24c0-5.991 5.009-11 11-11s11 5.009 11 11v24c0 5.991-5.009 11-11 11s-11-5.009-11-11M56 177c-29.812-2.268-54-27.2-54-58 0-22.249 12.035-42.143 32-52C44.283 28.935 79.059 2 118 2c28.033 0 53.458 13.621 70 37 39.694-3.583 75 29.69 75 70 0 38.131-30.308 68-69 68-.523 0-137.895.008-138 0m138-22c26.355 0 47-20.2 47-46 0-28.468-27.539-54.132-56-48-4.598.957-9.442-1.06-12-5-12.168-20.432-32.385-32-55-32-30.426 0-57.8 22.19-64 53-.788 3.662-3.475 6.733-7 8-14.508 5.471-23 18.995-23 34 .006 18.495 14.576 34.389 33 36 2.981-.022 136.933 0 137 0"/>
</symbol><symbol id="snow" viewBox="0 0 264 264">
    <path d="M121.5 252v-50.444l-33.222 33.222c-4.229 4.241-11.328 4.24-15.557 0-4.236-4.236-4.236-11.32 0-15.556l48.778-48.778V142.5H92.556l-48.279 48.278c-4.236 4.236-11.319 4.236-15.555 0s-4.236-11.32 0-15.556L61.443 142.5H12c-5.991 0-11-5.009-11-11s5.009-11 11-11h50.444L28.723 86.778c-4.236-4.237-4.236-11.32 0-15.556s11.319-4.236 15.555 0L93.557 120.5H121.5V92.557L72.722 43.779c-4.236-4.237-4.236-11.32 0-15.556 4.237-4.236 11.32-4.236 15.556 0L121.5 61.445V12c0-5.991 5.009-11 11-11s11 5.009 11 11v49.444l33.222-33.221c4.236-4.236 11.319-4.236 15.555 0s4.236 11.32 0 15.556L143.5 92.556V120.5h26.943l49.278-49.278c4.236-4.236 11.32-4.236 15.556 0 4.197 4.184 4.239 11.33.002 15.556L201.558 120.5H252c5.991 0 11 5.009 11 11s-5.009 11-11 11h-49.444l32.721 32.722c4.242 4.228 4.242 11.327.002 15.557-4.236 4.236-11.32 4.236-15.556 0l-48.279-48.278H143.5v27.944l48.777 48.777c4.236 4.236 4.236 11.32 0 15.556-4.228 4.241-11.327 4.241-15.555 0L143.5 201.557V252c0 5.991-5.009 11-11 11s-11-5.009-11-11"/>
</symbol><symbol id="storm" viewBox="0 0 264 264">
    <path d="M122.091 252.9c-4.212-1.527-6.946-5.817-6.552-10.28l2.306-26.132-13.507-4.5c-6.087-2.029-8.772-9.685-5.123-15.085l13.44-19.891c-29.86 0-56.531 0-56.654-.01-29.812-2.268-54-27.2-54-58 0-22.249 12.036-42.143 32-52 10.283-38.065 45.059-65 84-65 28.033 0 53.459 13.621 70 37 39.694-3.584 75 29.691 75 70 0 38.131-30.309 68-69 68-.326 0-21.1.006-46.424.008l-.485 5.826 13.97 5.321c5.979 2.278 8.303 9.803 4.65 15.056l-32 46c-2.559 3.679-7.415 5.219-11.621 3.687M194 155c26.356 0 47-20.2 47-46 0-28.468-27.539-54.132-56-48-4.598.957-9.442-1.061-12-5-12.168-20.432-32.385-32-55-32-30.426 0-57.8 22.19-64 53-.788 3.662-3.474 6.733-7 8-14.507 5.471-23 18.995-23 34 .005 18.494 14.576 34.389 33 36 2.981-.022 136.933 0 137 0m17.269 83.654c-5.531-2.304-8.228-8.854-5.923-14.385l10-24c1.693-4.064 5.775-6.779 10.177-6.77 1.445.003 2.874.29 4.208.846 5.531 2.304 8.228 8.854 5.923 14.385l-10 24c-2.304 5.531-8.869 8.23-14.385 5.924m-177 0c-5.531-2.304-8.229-8.854-5.924-14.385l10-24c2.304-5.531 8.853-8.228 14.384-5.924 5.472 2.279 8.226 8.86 5.924 14.385l-10 24c-2.303 5.532-8.868 8.23-14.384 5.924"/>
</symbol><symbol id="sun" viewBox="0 0 264 264">
    <path d="M121.5 252v-40c0-5.991 5.009-11 11-11s11 5.009 11 11v40c0 5.991-5.009 11-11 11s-11-5.009-11-11m87.575-27.869-28.284-28.284c-4.236-4.236-4.236-11.32 0-15.556 4.237-4.237 11.32-4.237 15.557 0l28.284 28.284c4.236 4.236 4.236 11.32 0 15.556-4.23 4.239-11.328 4.24-15.557 0m-169.706 0c-4.236-4.236-4.236-11.32 0-15.556l28.284-28.284c4.236-4.236 11.32-4.236 15.556 0s4.236 11.32 0 15.556l-28.284 28.284c-4.23 4.239-11.326 4.239-15.556 0M77.5 132c.034-29.943 25.057-54.966 55-55 29.943.034 54.966 25.057 55 55-.034 29.943-25.057 54.966-55 55-29.943-.034-54.966-25.057-55-55M212 142.5c-5.991 0-11-5.009-11-11s5.009-11 11-11h40c5.991 0 11 5.009 11 11s-5.009 11-11 11zm-200 0a11 11 0 0 1 0-22h40c5.991 0 11 5.009 11 11s-5.009 11-11 11zm168.791-59.791c-4.236-4.237-4.236-11.32 0-15.556l28.283-28.284c4.236-4.236 11.32-4.236 15.556 0s4.236 11.32 0 15.556l-28.284 28.284c-4.229 4.24-11.326 4.24-15.555 0m-113.137 0L39.37 54.425c-4.236-4.236-4.236-11.32 0-15.556s11.32-4.236 15.556 0L83.21 67.153c4.236 4.236 4.236 11.32 0 15.556-4.23 4.24-11.327 4.24-15.556 0M121.5 52V12c0-5.991 5.009-11 11-11s11 5.009 11 11v40c0 5.991-5.009 11-11 11s-11-5.009-11-11"/>
</symbol><symbol id="sunrise" viewBox="0 0 264 264">
    <path d="M48.5 248c-5.991 0-11-5.009-11-11s5.009-11 11-11h168c5.991 0 11 5.009 11 11s-5.009 11-11 11zm-36-44c-5.991 0-11-5.009-11-11s5.009-11 11-11h76.8a54.73 54.73 0 0 1-11.8-34c.034-29.943 25.057-54.966 55-55 29.943.034 54.966 25.057 55 55a54.73 54.73 0 0 1-11.8 34h76.8c5.991 0 11 5.009 11 11s-5.009 11-11 11zM212 158.5c-5.991 0-11-5.009-11-11s5.009-11 11-11h40c5.991 0 11 5.009 11 11s-5.009 11-11 11zm-200 0c-5.991 0-11-5.009-11-11s5.009-11 11-11h40c5.991 0 11 5.009 11 11s-5.009 11-11 11zm168.79-59.791c-4.236-4.237-4.236-11.32 0-15.556l28.284-28.285c4.237-4.237 11.32-4.237 15.557 0 4.233 4.232 4.192 11.365 0 15.557l-28.284 28.284c-4.229 4.24-11.328 4.241-15.557 0m-113.136 0L39.37 70.425c-4.237-4.237-4.237-11.32 0-15.557 4.236-4.236 11.32-4.236 15.556 0l28.285 28.285c4.236 4.236 4.236 11.32 0 15.556-4.23 4.24-11.328 4.241-15.557 0M121.5 68V28c0-5.991 5.009-11 11-11s11 5.009 11 11v40c0 5.991-5.009 11-11 11s-11-5.009-11-11"/>
</symbol><symbol id="sunset" viewBox="0 0 264 264">
    <path d="M48 229c-5.991 0-11-5.009-11-11s5.009-11 11-11h168c5.991 0 11 5.009 11 11s-5.009 11-11 11zm-36-44c-5.992 0-11-5.008-11-11 0-5.991 5.009-11 11-11h24.874A105 105 0 0 1 33 134c.06-53.898 45.102-98.94 99-99 53.898.061 98.939 45.102 99 99a88.8 88.8 0 0 1-4.841 29H252c5.991 0 11 5.009 11 11 0 5.928-5.015 11-11 11z"/>
</symbol><symbol id="temperature" viewBox="0 0 264 264">
    <path d="M65.5 196.5a68.9 68.9 0 0 1 16-44.246V52.5c0-28.673 22.877-52 51-52s51 23.327 51 52v99.754a68.9 68.9 0 0 1 16 44.246c-.041 36.476-30.524 66.959-67 67-36.476-.041-66.959-30.524-67-67m38-144v104c0 2.879-1.129 5.644-3.144 7.7A47.02 47.02 0 0 0 87.5 196.5c.028 24.499 20.501 44.972 45 45 24.499-.028 44.972-20.501 45-45a47.02 47.02 0 0 0-12.857-32.3 11 11 0 0 1-3.143-7.7v-104c0-16.262-13.279-30-29-30s-29 13.738-29 30m3 144c.009-9.993 5.949-19.321 15-23.557V52.5c0-5.991 5.009-11 11-11s11 5.009 11 11v120.443c9.052 4.235 14.991 13.563 15 23.557-.016 14.155-11.845 25.984-26 26-14.155-.016-25.984-11.845-26-26"/>
</symbol><symbol id="tornado" viewBox="0 0 264 264">
    <path d="M125.571 262.033c-3.697-3.004-5.048-8.207-3.28-12.63 3.07-7.687 9.66-30.394 3.368-42.987-10.534-21.083-49.678-16.385-62.832-40.678-10.555-19.487-2.664-32.716 3.1-42.376C90.241 82.599 25.5 73.361 25.5 39.5c0-30 67.258-38 107-38 39.426 0 105.934 7.878 106.987 37.291 3.675 37.374-15.675 70.303-42.343 94.4-15.783 14.264-26.059 27.601-21.574 49.478 1.832 8.933 4.112 20.052-.635 34.306-9.089 27.3-35.233 44.944-36.342 45.682-3.958 2.638-9.328 2.377-13.022-.624M216.64 39.375C210.423 33.829 182.275 23.5 132.5 23.5c-50.143 0-78.338 10.481-84.275 16 4.807 4.467 21.38 12.673 58.027 14.967C135.109 56.273 191.5 56.5 216.64 39.375"/>
</symbol><symbol id="wind-sock" viewBox="0 0 264 264">
    <path d="M9 236V90.987C3.877 87.36.832 81.274 1 75c0-10.43 7.57-18 18-18a21.5 21.5 0 0 1 4.783.529L57 29.848c0-7.243 4.753-13.923 12.655-12.723l184 28C258.962 45.932 263 50.632 263 56v40c0 5.368-4.038 10.067-9.345 10.875l-184 28c-8.98 1.366-12.873-6.842-12.655-14.639L31 99.112V236c0 5.991-5.009 11-11 11s-11-5.009-11-11m70-124.8 26.96-4.1V44.9L79 40.8zm95-14.456 28.051-4.27v-32.95L174 55.257zM57 91.889v-33.4L37.988 74.332c.008.222-.006 1.615-.04 2.08z"/>
</symbol><symbol id="wind" viewBox="0 0 264 264">
    <path d="M144 203c0-5.992 5.008-11 11-11s11 5.008 11 11c0 20.6 16.943 38 37 38 20.6 0 38-17.4 38-38 0-19.851-17.047-36-38-36h-95c-5.991 0-11-5.009-11-11s5.009-11 11-11h95c33.084 0 60 26.019 60 58 0 32.523-27.477 60-60 60s-59-26.916-59-60m-92-36c-5.991 0-11-5.009-11-11s5.009-11 11-11h16c5.991 0 11 5.009 11 11s-5.009 11-11 11zm24-48c-5.991 0-11-5.009-11-11s5.009-11 11-11h127c20.6 0 38-16.944 38-37s-17.4-37-38-37c-20.144.023-36.977 16.856-37 37 0 5.991-5.009 11-11 11s-11-5.009-11-11c.036-32.12 26.879-58.964 59-59 33.084 0 60 26.467 60 59s-26.916 59-60 59zm-64 0c-5.991 0-11-5.009-11-11s5.009-11 11-11h24c5.991 0 11 5.009 11 11s-5.009 11-11 11z"/>
</symbol></svg>